<?xml version="1.0" encoding="utf-8"?>
<!-- Generator: Adobe Illustrator 18.0.0, SVG Export Plug-In . SVG Version: 6.00 Build 0)  -->
<!DOCTYPE svg PUBLIC "-//W3C//DTD SVG 1.1//EN" "http://www.w3.org/Graphics/SVG/1.1/DTD/svg11.dtd">
<svg version="1.1" id="Layer_1" xmlns="http://www.w3.org/2000/svg" xmlns:xlink="http://www.w3.org/1999/xlink" x="0px" y="0px"
	 viewBox="0 0 53.8 36.9" enable-background="new 0 0 53.8 36.9" xml:space="preserve">
<g>
	<path fill="#F1F1F1" d="M50.7,36.9H3.1c-1.7,0-3.1-1.4-3.1-3.1V3.1C0,1.4,1.4,0,3.1,0h47.7c1.7,0,3.1,1.4,3.1,3.1v30.7
		C53.8,35.5,52.4,36.9,50.7,36.9"/>
	<g>
		<g>
			<path fill="#006BC4" d="M38.6,22.9c-1.8,4.7-6.4,8.1-11.7,8.1c-5.3,0-9.9-3.4-11.7-8.1h1.4c1.7,4,5.7,6.8,10.3,6.8
				c4.6,0,8.6-2.8,10.3-6.8H38.6L38.6,22.9z"/>
			<path fill="#006BC4" d="M38.6,22.9l-0.1,0c-1.8,4.7-6.3,8-11.6,8c-5.3,0-9.8-3.3-11.6-8l-0.1,0v0.1l1.4,0v-0.1l-0.1,0
				c1.7,4,5.8,6.9,10.4,6.9c4.7,0,8.7-2.8,10.4-6.9l-0.1-0.1v0.1h1.4V22.9l-0.1,0L38.6,22.9l0-0.1h-1.5l0,0.1
				c-1.7,3.9-5.6,6.7-10.2,6.7c-4.6,0-8.5-2.8-10.2-6.7l0-0.1l-1.6,0l0.1,0.2c1.8,4.8,6.4,8.2,11.8,8.2c5.4,0,10-3.4,11.8-8.2
				l0.1-0.2h-0.2L38.6,22.9L38.6,22.9z"/>
			<path fill="#006BC4" d="M37.3,14c-0.3-0.8-0.8-1.5-1.3-2.2c-0.2,0.1-0.4,0.1-0.7,0.1c-1.1,0-1.9-0.9-1.9-1.9c0-0.2,0-0.5,0.1-0.7
				c-1.9-1.3-4.1-2.1-6.6-2.1c-4.6,0-8.6,2.8-10.3,6.8h-1.4c1.8-4.7,6.4-8.1,11.7-8.1c2.8,0,5.3,0.9,7.4,2.4C34.6,8.1,35,8,35.4,8
				c1.1,0,1.9,0.9,1.9,1.9c0,0.4-0.1,0.7-0.3,1c0.7,0.9,1.2,1.9,1.6,3L37.3,14L37.3,14z"/>
			<path fill="#006BC4" d="M37.3,14l0.1-0.1c-0.3-0.8-0.8-1.5-1.3-2.2l-0.1-0.1l-0.1,0c-0.2,0.1-0.4,0.1-0.6,0.1
				c-0.5,0-0.9-0.2-1.3-0.5c-0.3-0.3-0.5-0.8-0.5-1.3c0-0.2,0-0.4,0.1-0.6l0-0.1l-0.1-0.1C31.7,7.8,29.4,7,26.9,7
				c-4.7,0-8.7,2.8-10.4,6.9l0.1,0.1v-0.1h-1.4V14l0.1,0c1.8-4.7,6.3-8,11.6-8c2.7,0,5.3,0.9,7.3,2.4l0.1,0.1l0.1,0
				c0.3-0.2,0.6-0.3,1-0.3c0.5,0,1,0.2,1.3,0.5C37,9,37.2,9.5,37.2,10c0,0.3-0.1,0.7-0.3,0.9l0,0.1l0,0.1c0.7,0.9,1.2,1.9,1.6,3
				l0.1,0v-0.1l-1.4,0L37.3,14l0.1-0.1L37.3,14l0,0.1l1.6,0l-0.1-0.2c-0.4-1.1-1-2.1-1.6-3L37,11l0.1,0.1c0.2-0.3,0.3-0.7,0.3-1.1
				c0-1.1-0.9-2.1-2.1-2.1c-0.4,0-0.8,0.1-1.1,0.3l0.1,0.1l0.1-0.1c-2.1-1.5-4.7-2.5-7.5-2.5c-5.4,0-10,3.4-11.8,8.2l-0.1,0.2h1.6
				l0-0.1c1.7-4,5.6-6.7,10.2-6.7c2.4,0,4.7,0.8,6.5,2.1l0.1-0.1l-0.1,0c-0.1,0.2-0.1,0.5-0.1,0.7c0,1.1,0.9,2.1,2.1,2.1
				c0.2,0,0.5-0.1,0.7-0.1l0-0.1l-0.1,0.1c0.5,0.7,0.9,1.4,1.2,2.2l0,0.1l0.1,0L37.3,14L37.3,14z"/>
			<path fill="#F89300" d="M34.3,10c0-0.6,0.5-1.1,1.1-1.1c0.6,0,1.1,0.5,1.1,1.1c0,0.6-0.5,1.1-1.1,1.1C34.8,11,34.3,10.5,34.3,10"
				/>
			<path fill="#F89300" d="M34.3,10L34.3,10c0-0.3,0.1-0.5,0.3-0.7c0.2-0.2,0.4-0.3,0.7-0.3c0.3,0,0.5,0.1,0.7,0.3
				c0.2,0.2,0.3,0.4,0.3,0.7c0,0.3-0.1,0.5-0.3,0.7c-0.2,0.2-0.4,0.3-0.7,0.3c-0.3,0-0.5-0.1-0.7-0.3C34.4,10.5,34.3,10.2,34.3,10
				L34.3,10c0,0.6,0.5,1.1,1.1,1.1c0.6,0,1.1-0.5,1.1-1.1c0-0.6-0.5-1.1-1.1-1.1C34.8,8.9,34.3,9.4,34.3,10L34.3,10L34.3,10z"/>
			<path fill="#006BC4" d="M3.7,16.4c0.3-0.3,0.6-0.5,0.9-0.6c0.3-0.1,0.7-0.2,1.1-0.2c0.4,0,0.7,0.1,1,0.2c0.3,0.1,0.7,0.3,0.9,0.6
				L8,16.8l-0.8,0.8l-0.4-0.4c-0.2-0.2-0.4-0.3-0.6-0.4c-0.2-0.1-0.4-0.1-0.6-0.1c-0.2,0-0.4,0-0.6,0.1c-0.2,0.1-0.4,0.2-0.6,0.4
				c-0.2,0.2-0.3,0.3-0.4,0.5C4,18,4,18.2,4,18.4c0,0.2,0,0.4,0.1,0.6c0.1,0.2,0.2,0.4,0.4,0.6c0.3,0.3,0.7,0.5,1.2,0.5
				c0.2,0,0.4,0,0.6-0.1c0.2-0.1,0.4-0.2,0.5-0.4l0.4-0.4L8,20l-0.4,0.4c-0.3,0.3-0.6,0.5-0.9,0.6c-0.3,0.1-0.7,0.2-1,0.2
				S5,21.1,4.6,21c-0.3-0.1-0.6-0.3-0.9-0.6c-0.3-0.3-0.5-0.6-0.6-0.9c-0.1-0.3-0.2-0.7-0.2-1c0-0.4,0.1-0.7,0.2-1.1
				C3.2,17,3.4,16.7,3.7,16.4"/>
			<path fill="#006BC4" d="M3.7,16.4L3.7,16.4c0.4-0.2,0.6-0.4,1-0.5l0,0c0.3-0.1,0.7-0.2,1-0.2c0.3,0,0.7,0.1,1,0.2v0l0,0
				c0.3,0.1,0.6,0.3,0.9,0.6l0.3,0.3l-0.6,0.6L7,17.1l-0.1,0.1L7,17.1c-0.2-0.2-0.4-0.3-0.6-0.4c-0.2-0.1-0.5-0.1-0.7-0.1
				c-0.2,0-0.5,0-0.7,0.1c-0.2,0.1-0.4,0.2-0.6,0.4l0.1,0.1l-0.1-0.1c-0.2,0.2-0.3,0.4-0.4,0.6c-0.1,0.2-0.1,0.4-0.1,0.7
				c0,0.2,0,0.5,0.1,0.7c0.1,0.2,0.2,0.4,0.4,0.6c0.4,0.4,0.8,0.5,1.3,0.5c0.2,0,0.5,0,0.7-0.1C6.6,20,6.8,19.8,7,19.7l-0.1-0.1
				L7,19.7l0.3-0.3L7.9,20l-0.3,0.3c-0.3,0.3-0.6,0.5-0.9,0.6l0,0.1l0-0.1c-0.3,0.1-0.7,0.2-1,0.2c-0.3,0-0.7-0.1-1-0.2l0,0.1l0-0.1
				c-0.3-0.1-0.6-0.3-0.9-0.6c-0.3-0.3-0.5-0.6-0.6-0.9c-0.1-0.3-0.2-0.7-0.2-1c0-0.3,0.1-0.7,0.2-1C3.3,17.1,3.5,16.8,3.7,16.4
				L3.7,16.4L3.7,16.4c-0.4,0.2-0.6,0.5-0.7,0.9c-0.1,0.4-0.2,0.7-0.2,1.1c0,0.4,0.1,0.7,0.2,1.1c0.1,0.4,0.4,0.7,0.6,1
				c0.3,0.3,0.6,0.5,1,0.6h0l0,0c0.4,0.1,0.7,0.2,1.1,0.2c0.4,0,0.7-0.1,1.1-0.2l0,0c0.4-0.1,0.7-0.4,1-0.6L8.2,20l-0.9-1l-0.5,0.5
				l0,0c-0.1,0.2-0.3,0.3-0.5,0.3c-0.2,0.1-0.4,0.1-0.6,0.1c-0.4,0-0.8-0.2-1.1-0.5c-0.2-0.2-0.3-0.3-0.3-0.5
				c-0.1-0.2-0.1-0.4-0.1-0.6c0-0.2,0-0.4,0.1-0.6c0.1-0.2,0.2-0.4,0.3-0.5v0l0,0c0.2-0.2,0.3-0.3,0.5-0.3c0.2-0.1,0.4-0.1,0.6-0.1
				c0.2,0,0.4,0,0.6,0.1c0.2,0.1,0.4,0.2,0.5,0.3v0l0.5,0.5l0.9-1l-0.5-0.5c-0.3-0.3-0.6-0.5-1-0.6l0,0.1l0-0.1
				c-0.4-0.1-0.7-0.2-1.1-0.2c-0.4,0-0.7,0.1-1.1,0.2l0,0.1l0-0.1C4.2,15.8,3.9,16,3.7,16.4L3.7,16.4L3.7,16.4z"/>
			<path fill="#006BC4" d="M10.3,17.2c-0.3,0.3-0.5,0.7-0.5,1.2c0,0.3,0.1,0.5,0.2,0.7c0.1-0.1,0.2-0.2,0.4-0.4
				c0.2-0.2,0.4-0.4,0.6-0.6c0.2-0.2,0.5-0.5,0.7-0.7c0.2-0.2,0.4-0.4,0.5-0.5c-0.3-0.2-0.7-0.2-1-0.2
				C10.9,16.8,10.6,16.9,10.3,17.2 M13.1,19.2l0.8,0.8l-0.4,0.4c-0.3,0.3-0.6,0.5-0.9,0.6c-0.3,0.1-0.7,0.2-1.1,0.2
				c-0.4,0-0.7-0.1-1.1-0.2c-0.3-0.1-0.6-0.3-0.9-0.6c-0.3-0.3-0.5-0.6-0.6-0.9c-0.1-0.3-0.2-0.7-0.2-1.1c0-0.4,0.1-0.7,0.2-1
				C9,17,9.2,16.7,9.5,16.4c0.3-0.3,0.6-0.5,0.9-0.6c0.3-0.1,0.7-0.2,1.1-0.2c0.4,0,0.7,0.1,1,0.2c0.3,0.1,0.7,0.3,0.9,0.6l0.4,0.4
				l-3.1,3.1c0.3,0.2,0.6,0.2,1,0.2c0.4-0.1,0.7-0.2,0.9-0.5L13.1,19.2L13.1,19.2z"/>
			<path fill="#006BC4" d="M10.3,17.2L10.3,17.2c-0.4,0.3-0.6,0.7-0.6,1.2c0,0.3,0.1,0.5,0.2,0.8l0.1,0.2l0.1-0.1
				c0.1-0.1,0.2-0.2,0.4-0.4c0.2-0.2,0.4-0.4,0.6-0.6c0.2-0.2,0.4-0.5,0.7-0.7l-0.1-0.1l0.1,0.1c0.2-0.2,0.4-0.4,0.5-0.5l0.1-0.1
				l-0.2-0.1c-0.3-0.1-0.5-0.2-0.8-0.2c-0.1,0-0.2,0-0.3,0C10.8,16.6,10.5,16.8,10.3,17.2L10.3,17.2L10.3,17.2
				c0.3-0.2,0.6-0.3,0.9-0.3c0.1,0,0.2,0,0.2,0c0.2,0,0.5,0.1,0.7,0.2l0.1-0.1l-0.1-0.1c-0.1,0.1-0.3,0.3-0.5,0.5l0,0v0
				c-0.2,0.2-0.4,0.4-0.7,0.7c-0.2,0.2-0.4,0.4-0.6,0.6c-0.2,0.2-0.3,0.3-0.4,0.4l0.1,0.1l0.1-0.1c-0.1-0.2-0.2-0.4-0.2-0.7
				C9.9,17.9,10.1,17.6,10.3,17.2L10.3,17.2L10.3,17.2z M13.1,19.2L13.1,19.2l0.6,0.8l-0.3,0.3c-0.3,0.3-0.5,0.4-0.9,0.6
				c-0.3,0.1-0.7,0.2-1,0.2c-0.4,0-0.7-0.1-1-0.2c-0.3-0.1-0.6-0.3-0.9-0.6C9.3,20,9.2,19.7,9,19.4v0c-0.1-0.3-0.2-0.7-0.2-1
				c0-0.3,0.1-0.7,0.2-1c0.1-0.3,0.3-0.6,0.6-0.9c0.3-0.3,0.6-0.5,0.9-0.6l0,0c0.3-0.1,0.7-0.2,1-0.2c0.3,0,0.7,0.1,1,0.2l0,0l0,0
				c0.3,0.1,0.6,0.3,0.9,0.6l0.3,0.3l-3.1,3.1l0.2,0.1c0.3,0.1,0.5,0.2,0.8,0.2c0.1,0,0.2,0,0.3,0l0,0l0,0c0.4-0.1,0.7-0.2,1-0.5
				L13.1,19.2L13.1,19.2L13.1,19.2L13.1,19.2L13.1,19.2l-0.5,0.3c-0.2,0.2-0.5,0.4-0.9,0.4l0,0.1l0-0.1c-0.1,0-0.2,0-0.2,0
				c-0.2,0-0.5-0.1-0.7-0.2l-0.1,0.1l0.1,0.1l3.2-3.2l-0.5-0.5c-0.3-0.3-0.6-0.5-1-0.6l0,0.1l0-0.1c-0.4-0.1-0.7-0.2-1.1-0.2
				c-0.4,0-0.7,0.1-1.1,0.2l0,0.1l0-0.1c-0.4,0.1-0.7,0.4-1,0.6c-0.3,0.3-0.5,0.6-0.6,1c-0.1,0.4-0.2,0.7-0.2,1.1
				c0,0.4,0.1,0.7,0.2,1.1l0,0l0,0c0.1,0.4,0.4,0.7,0.6,1c0.3,0.3,0.6,0.5,0.9,0.6c0.4,0.1,0.7,0.2,1.1,0.2c0.4,0,0.8-0.1,1.1-0.2
				c0.4-0.1,0.7-0.4,0.9-0.6L14,20l-1-1V19.2L13.1,19.2L13.1,19.2z"/>
			<path fill="#006BC4" d="M14.5,18.4c0-0.4,0.1-0.7,0.2-1.1c0.1-0.3,0.3-0.6,0.6-0.9c0.3-0.3,0.6-0.5,0.9-0.6
				c0.3-0.1,0.7-0.2,1.1-0.2c0.4,0,0.8,0.1,1.1,0.2c0.3,0.1,0.6,0.3,0.9,0.6c0.3,0.2,0.5,0.5,0.6,0.9c0.2,0.3,0.2,0.7,0.2,1.1v2.8
				H19v-2.8c0-0.2,0-0.4-0.1-0.6c-0.1-0.2-0.2-0.4-0.4-0.5c-0.1-0.2-0.3-0.3-0.5-0.4c-0.2-0.1-0.4-0.1-0.7-0.1c-0.2,0-0.5,0-0.7,0.1
				c-0.2,0.1-0.4,0.2-0.5,0.4c-0.1,0.1-0.3,0.3-0.4,0.5c-0.1,0.2-0.1,0.4-0.1,0.6v2.8h-1.1V18.4L14.5,18.4z"/>
			<path fill="#006BC4" d="M14.5,18.4h0.1c0-0.4,0.1-0.7,0.2-1l-0.1,0l0.1,0.1c0.1-0.3,0.3-0.6,0.6-0.8c0.2-0.2,0.5-0.4,0.9-0.6l0,0
				l0,0c0.3-0.1,0.7-0.2,1-0.2c0.4,0,0.7,0.1,1,0.2v0l0,0c0.3,0.1,0.6,0.3,0.9,0.6l0,0v0c0.2,0.2,0.4,0.5,0.6,0.8v0l0,0
				c0.1,0.3,0.2,0.7,0.2,1v2.7h-0.9v-2.7c0-0.2,0-0.5-0.1-0.7l-0.1,0.1l0.1,0c-0.1-0.2-0.2-0.4-0.4-0.6l-0.1,0.1l0.1-0.1
				c-0.2-0.2-0.4-0.3-0.6-0.4l0,0.1l0.1-0.1c-0.2-0.1-0.5-0.1-0.7-0.1c-0.2,0-0.5,0-0.7,0.1l0.1,0.1l0-0.1c-0.2,0.1-0.4,0.2-0.6,0.4
				c-0.2,0.2-0.3,0.4-0.4,0.6l0,0v0c-0.1,0.2-0.1,0.4-0.1,0.7v2.7h-0.9v-2.7h-0.3v2.9h1.4v-2.9c0-0.2,0-0.4,0.1-0.6l-0.1,0l0.1,0.1
				c0.1-0.2,0.2-0.4,0.3-0.5c0.1-0.1,0.3-0.3,0.5-0.3v0c0.2-0.1,0.4-0.1,0.6-0.1c0.2,0,0.4,0,0.6,0.1l0,0h0c0.2,0.1,0.4,0.2,0.5,0.3
				l0,0l0,0c0.1,0.1,0.3,0.3,0.3,0.5l0,0v0c0.1,0.2,0.1,0.4,0.1,0.6v2.9h1.4v-2.9c0-0.4-0.1-0.8-0.2-1.1l-0.1,0.1l0.1,0
				c-0.1-0.4-0.4-0.7-0.6-0.9l-0.1,0.1l0.1-0.1c-0.3-0.3-0.6-0.5-0.9-0.6l0,0.1l0.1-0.1c-0.3-0.2-0.7-0.2-1.1-0.2
				c-0.4,0-0.8,0.1-1.1,0.2l0.1,0.1l0-0.1c-0.4,0.1-0.7,0.4-0.9,0.6c-0.3,0.3-0.5,0.6-0.6,0.9v0c-0.1,0.3-0.2,0.7-0.2,1.1L14.5,18.4
				L14.5,18.4z"/>
			<path fill="#006BC4" d="M21.6,16.4c0.3-0.3,0.6-0.5,0.9-0.6c0.3-0.1,0.7-0.2,1.1-0.2c0.4,0,0.7,0.1,1,0.2
				c0.3,0.1,0.7,0.3,0.9,0.6l0.4,0.4l-0.8,0.8l-0.4-0.4c-0.2-0.2-0.4-0.3-0.6-0.4c-0.2-0.1-0.4-0.1-0.6-0.1c-0.2,0-0.4,0-0.6,0.1
				c-0.2,0.1-0.4,0.2-0.6,0.4c-0.2,0.2-0.3,0.3-0.4,0.5c-0.1,0.2-0.1,0.4-0.1,0.6c0,0.2,0,0.4,0.1,0.6c0.1,0.2,0.2,0.4,0.4,0.6
				c0.3,0.3,0.7,0.5,1.2,0.5c0.2,0,0.4,0,0.6-0.1c0.2-0.1,0.4-0.2,0.5-0.4l0.4-0.4l0.8,0.8l-0.4,0.4c-0.3,0.3-0.6,0.5-0.9,0.6
				c-0.3,0.1-0.7,0.2-1,0.2c-0.4,0-0.7-0.1-1.1-0.2c-0.3-0.1-0.6-0.3-0.9-0.6c-0.3-0.3-0.5-0.6-0.6-0.9c-0.1-0.3-0.2-0.7-0.2-1
				c0-0.4,0.1-0.7,0.2-1.1C21.1,17,21.3,16.7,21.6,16.4"/>
			<path fill="#006BC4" d="M21.6,16.4L21.6,16.4c0.4-0.2,0.6-0.4,1-0.5l0,0c0.3-0.1,0.7-0.2,1-0.2c0.3,0,0.7,0.1,1,0.2l0,0l0,0
				c0.3,0.1,0.6,0.3,0.9,0.6l0.3,0.3l-0.6,0.6l-0.3-0.3l-0.1,0.1l0.1-0.1c-0.2-0.2-0.4-0.3-0.6-0.4c-0.2-0.1-0.5-0.1-0.7-0.1
				c-0.2,0-0.5,0-0.7,0.1c-0.2,0.1-0.4,0.2-0.6,0.4l0.1,0.1l-0.1-0.1c-0.2,0.2-0.3,0.4-0.4,0.6c-0.1,0.2-0.1,0.4-0.1,0.7
				s0,0.5,0.1,0.7c0.1,0.2,0.2,0.4,0.4,0.6c0.4,0.4,0.8,0.5,1.3,0.5c0.2,0,0.5,0,0.7-0.1c0.2-0.1,0.4-0.2,0.6-0.4l-0.1-0.1l0.1,0.1
				l0.3-0.3l0.6,0.6l-0.3,0.3c-0.3,0.3-0.6,0.5-0.9,0.6l0,0.1l0-0.1c-0.3,0.1-0.7,0.2-1,0.2c-0.3,0-0.7-0.1-1-0.2l0,0.1l0-0.1
				c-0.3-0.1-0.6-0.3-0.9-0.6c-0.3-0.3-0.5-0.6-0.6-0.9c-0.1-0.3-0.2-0.7-0.2-1c0-0.3,0.1-0.7,0.2-1C21.2,17.1,21.4,16.8,21.6,16.4
				L21.6,16.4L21.6,16.4c-0.4,0.2-0.6,0.5-0.7,0.9c-0.1,0.4-0.2,0.7-0.2,1.1c0,0.4,0.1,0.7,0.2,1.1c0.1,0.4,0.4,0.7,0.6,1
				c0.3,0.3,0.6,0.5,1,0.6l0,0l0,0c0.4,0.1,0.7,0.2,1.1,0.2s0.7-0.1,1.1-0.2l0,0c0.4-0.1,0.7-0.4,1-0.6l0.5-0.5l-0.9-1l-0.5,0.5l0,0
				c-0.1,0.2-0.3,0.3-0.5,0.3c-0.2,0.1-0.4,0.1-0.6,0.1c-0.4,0-0.8-0.2-1.1-0.5c-0.2-0.2-0.3-0.3-0.3-0.5C22,18.8,22,18.6,22,18.4
				c0-0.2,0-0.4,0.1-0.6c0.1-0.2,0.2-0.4,0.3-0.5l0,0l0,0c0.2-0.2,0.3-0.3,0.5-0.3c0.2-0.1,0.4-0.1,0.6-0.1c0.2,0,0.4,0,0.6,0.1
				c0.2,0.1,0.4,0.2,0.5,0.3l0.5,0.5l0.9-1l-0.5-0.5c-0.3-0.3-0.6-0.5-1-0.6l0,0.1l0-0.1c-0.4-0.1-0.7-0.2-1.1-0.2
				c-0.4,0-0.7,0.1-1.1,0.2l0,0.1l0-0.1C22.1,15.8,21.8,16,21.6,16.4L21.6,16.4L21.6,16.4z"/>
			<path fill="#006BC4" d="M27.7,18.4c0,0.2,0,0.5,0.1,0.7c0.1,0.2,0.2,0.4,0.4,0.5c0.2,0.1,0.3,0.3,0.5,0.4
				c0.2,0.1,0.4,0.1,0.7,0.1c0.2,0,0.5,0,0.7-0.1c0.2-0.1,0.4-0.2,0.5-0.4c0.2-0.2,0.3-0.3,0.4-0.5c0.1-0.2,0.1-0.4,0.1-0.7
				c0-0.2,0-0.4-0.1-0.6c-0.1-0.2-0.2-0.4-0.4-0.5c-0.1-0.2-0.3-0.3-0.5-0.4c-0.2-0.1-0.4-0.1-0.7-0.1c-0.2,0-0.5,0-0.7,0.1
				c-0.2,0.1-0.4,0.2-0.5,0.4c-0.1,0.1-0.3,0.3-0.4,0.5C27.7,17.9,27.7,18.1,27.7,18.4 M26.6,18.4c0-0.4,0.1-0.7,0.2-1.1
				c0.1-0.3,0.3-0.6,0.6-0.9c0.3-0.3,0.6-0.5,0.9-0.6c0.3-0.1,0.7-0.2,1.1-0.2c0.4,0,0.8,0.1,1.1,0.2c0.3,0.1,0.6,0.3,0.9,0.6
				c0.3,0.2,0.5,0.5,0.6,0.9c0.1,0.3,0.2,0.7,0.2,1.1c0,0.4-0.1,0.7-0.2,1.1c-0.1,0.3-0.3,0.6-0.6,0.9c-0.3,0.3-0.6,0.5-0.9,0.6
				c-0.3,0.1-0.7,0.2-1.1,0.2c-0.4,0-0.7-0.1-1.1-0.2c-0.3-0.1-0.6-0.4-0.9-0.6c-0.2-0.3-0.4-0.6-0.6-0.9
				C26.7,19.1,26.6,18.8,26.6,18.4"/>
			<path fill="#006BC4" d="M27.7,18.4h-0.1c0,0.2,0,0.5,0.1,0.7l0,0l0,0c0.1,0.2,0.2,0.4,0.4,0.6l0,0l0,0c0.2,0.2,0.4,0.3,0.6,0.4
				l0,0l0,0c0.2,0.1,0.5,0.1,0.7,0.1c0.2,0,0.5,0,0.7-0.1l0,0l0,0c0.2-0.1,0.4-0.2,0.6-0.4c0.2-0.2,0.3-0.4,0.4-0.6l-0.1,0l0.1,0.1
				c0.1-0.2,0.1-0.5,0.1-0.7c0-0.2,0-0.5-0.1-0.7l-0.1,0.1l0.1,0c-0.1-0.2-0.2-0.4-0.4-0.6l-0.1,0.1l0.1-0.1
				c-0.2-0.2-0.4-0.3-0.6-0.4l0,0.1l0.1-0.1c-0.2-0.1-0.5-0.1-0.7-0.1c-0.2,0-0.5,0-0.7,0.1l0.1,0.1l0-0.1c-0.2,0.1-0.4,0.2-0.6,0.4
				v0c-0.2,0.2-0.3,0.4-0.4,0.6l0,0v0c-0.1,0.2-0.1,0.4-0.1,0.7h0.3c0-0.2,0-0.4,0.1-0.6l-0.1,0l0.1,0.1c0.1-0.2,0.2-0.4,0.3-0.5v0
				c0.1-0.1,0.3-0.3,0.5-0.3l0,0l0,0c0.2-0.1,0.4-0.1,0.6-0.1c0.2,0,0.4,0,0.6,0.1l0,0l0,0c0.2,0.1,0.4,0.2,0.5,0.3l0,0l0,0
				c0.1,0.1,0.3,0.3,0.3,0.5v0l0,0c0.1,0.2,0.1,0.4,0.1,0.6c0,0.2,0,0.4-0.1,0.6l0,0v0c-0.1,0.2-0.2,0.4-0.3,0.5
				c-0.1,0.1-0.3,0.2-0.5,0.3l0.1,0.1l0-0.1c-0.2,0.1-0.4,0.1-0.6,0.1c-0.2,0-0.4,0-0.6-0.1l0,0.1l0.1-0.1c-0.2-0.1-0.4-0.2-0.5-0.3
				l-0.1,0.1l0.1-0.1c-0.1-0.1-0.3-0.3-0.3-0.5L27.8,19l0.1,0c-0.1-0.2-0.1-0.4-0.1-0.6H27.7L27.7,18.4z M26.6,18.4h0.1
				c0-0.4,0.1-0.7,0.2-1l-0.1,0l0.1,0.1c0.1-0.3,0.3-0.6,0.6-0.8c0.2-0.2,0.5-0.4,0.9-0.6l0,0l0,0c0.3-0.1,0.7-0.2,1-0.2
				c0.4,0,0.7,0.1,1,0.2l0,0l0,0c0.3,0.1,0.6,0.3,0.9,0.6l0,0l0,0c0.2,0.2,0.4,0.5,0.6,0.8v0v0c0.1,0.3,0.2,0.7,0.2,1
				c0,0.4-0.1,0.7-0.2,1v0l0,0c-0.1,0.3-0.3,0.6-0.6,0.9c-0.2,0.2-0.5,0.4-0.9,0.6l0.1,0.1l-0.1-0.1c-0.3,0.1-0.7,0.2-1,0.2
				c-0.4,0-0.7-0.1-1-0.2l0,0.1l0.1-0.1c-0.3-0.1-0.6-0.3-0.9-0.6l-0.1,0.1l0.1-0.1c-0.2-0.2-0.4-0.5-0.6-0.9l-0.1,0.1l0.1,0
				c-0.1-0.3-0.2-0.7-0.2-1h-0.3c0,0.4,0.1,0.8,0.2,1.1l0,0c0.2,0.4,0.4,0.7,0.6,0.9l0,0l0,0c0.3,0.3,0.6,0.5,0.9,0.6l0,0h0
				c0.4,0.1,0.7,0.2,1.1,0.2c0.4,0,0.8-0.1,1.1-0.2l0,0c0.4-0.2,0.7-0.4,0.9-0.6c0.3-0.3,0.5-0.6,0.6-0.9l-0.1,0l0.1,0.1
				c0.2-0.4,0.2-0.7,0.2-1.1c0-0.4-0.1-0.8-0.2-1.1l-0.1,0.1l0.1,0c-0.1-0.4-0.4-0.7-0.6-0.9l-0.1,0.1l0.1-0.1
				c-0.3-0.3-0.6-0.5-0.9-0.6l0,0.1l0.1-0.1c-0.3-0.2-0.7-0.2-1.1-0.2c-0.4,0-0.8,0.1-1.1,0.2l0.1,0.1l0-0.1
				c-0.4,0.1-0.7,0.4-0.9,0.6c-0.3,0.3-0.5,0.6-0.6,0.9l0,0l0,0c-0.1,0.3-0.2,0.7-0.2,1.1L26.6,18.4L26.6,18.4z"/>
			<path fill="#006BC4" d="M37.9,15.6v1.1h-3.4c-0.2,0-0.3,0.1-0.4,0.2c-0.1,0.1-0.2,0.2-0.2,0.4c0,0.2,0.1,0.3,0.2,0.4
				c0.1,0.1,0.2,0.2,0.4,0.2h2.2c0.2,0,0.4,0,0.6,0.1c0.2,0.1,0.4,0.2,0.5,0.3c0.2,0.1,0.3,0.3,0.4,0.5c0.1,0.2,0.1,0.4,0.1,0.6
				s0,0.5-0.1,0.7c-0.1,0.2-0.2,0.4-0.4,0.5c-0.1,0.1-0.3,0.3-0.5,0.4c-0.2,0.1-0.4,0.1-0.6,0.1h-3.4v-1.1h3.4
				c0.2,0,0.3-0.1,0.4-0.2c0.1-0.1,0.2-0.2,0.2-0.4c0-0.2-0.1-0.3-0.2-0.4c-0.1-0.1-0.2-0.2-0.4-0.2h-2.2c-0.2,0-0.5,0-0.7-0.1
				c-0.2-0.1-0.4-0.2-0.5-0.4c-0.1-0.2-0.3-0.3-0.4-0.5c-0.1-0.2-0.1-0.4-0.1-0.7c0-0.2,0-0.4,0.1-0.6c0.1-0.2,0.2-0.4,0.4-0.5
				c0.1-0.1,0.3-0.3,0.5-0.3c0.2-0.1,0.4-0.1,0.7-0.1H37.9L37.9,15.6z"/>
			<path fill="#006BC4" d="M37.9,15.6h-0.1v1h-3.2c-0.2,0-0.4,0.1-0.5,0.2c-0.1,0.1-0.2,0.3-0.2,0.5c0,0.2,0.1,0.4,0.2,0.5v0l0,0
				c0.1,0.1,0.3,0.2,0.5,0.2h2.2c0.2,0,0.4,0,0.6,0.1l0,0l0,0c0.2,0.1,0.4,0.2,0.5,0.3l0,0l0,0c0.1,0.1,0.3,0.3,0.3,0.5l0,0l0,0
				c0.1,0.2,0.1,0.4,0.1,0.6c0,0.2,0,0.4-0.1,0.6l0,0v0c-0.1,0.2-0.2,0.3-0.3,0.5c-0.1,0.1-0.3,0.2-0.5,0.3l0.1,0.1l0-0.1
				c-0.2,0.1-0.4,0.1-0.6,0.1h-3.2v-0.9h3.2c0.2,0,0.4-0.1,0.5-0.2c0.1-0.1,0.2-0.3,0.2-0.5c0-0.2-0.1-0.4-0.2-0.5
				c-0.1-0.1-0.3-0.2-0.5-0.2h-2.2c-0.2,0-0.4,0-0.6-0.1l0,0.1l0.1-0.1c-0.2-0.1-0.3-0.2-0.5-0.3l-0.1,0.1l0.1-0.1
				c-0.1-0.1-0.3-0.3-0.3-0.5L33,17.9l0.1,0C33,17.7,33,17.5,33,17.3c0-0.2,0-0.4,0.1-0.6l-0.1,0l0.1,0.1c0.1-0.2,0.2-0.4,0.3-0.5
				c0.1-0.1,0.3-0.2,0.5-0.3l0,0c0.2-0.1,0.4-0.1,0.6-0.1h3.4V15.6l-0.1,0L37.9,15.6l0-0.1h-3.4c-0.2,0-0.5,0-0.7,0.1l0.1,0.1l0-0.1
				c-0.2,0.1-0.4,0.2-0.6,0.4c-0.2,0.2-0.3,0.4-0.4,0.6v0v0c-0.1,0.2-0.1,0.4-0.1,0.7c0,0.2,0,0.5,0.1,0.7l0,0l0,0
				c0.1,0.2,0.2,0.4,0.4,0.6l0,0l0,0c0.2,0.2,0.3,0.3,0.6,0.4l0,0l0,0c0.2,0.1,0.5,0.1,0.7,0.1h2.2c0.1,0,0.2,0,0.3,0.1
				c0.1,0.1,0.1,0.2,0.1,0.3c0,0.1,0,0.2-0.1,0.3c-0.1,0.1-0.2,0.1-0.3,0.1h-3.5v1.4h3.5c0.2,0,0.5,0,0.7-0.1l0,0v0
				c0.2-0.1,0.4-0.2,0.6-0.4c0.2-0.2,0.3-0.4,0.4-0.6l-0.1,0l0.1,0.1c0.1-0.2,0.1-0.5,0.1-0.7c0-0.2,0-0.5-0.1-0.7l-0.1,0.1l0.1,0
				c-0.1-0.2-0.2-0.4-0.4-0.6l-0.1,0.1l0.1-0.1c-0.2-0.2-0.4-0.3-0.6-0.4l0,0.1l0.1-0.1c-0.2-0.1-0.4-0.1-0.7-0.1h-2.2
				c-0.1,0-0.2,0-0.3-0.1l-0.1,0.1l0.1-0.1c-0.1-0.1-0.1-0.2-0.1-0.3c0-0.1,0-0.2,0.1-0.3c0.1-0.1,0.2-0.1,0.3-0.1H38v-1.4h-0.1
				L37.9,15.6L37.9,15.6z"/>
			<path fill="#006BC4" d="M44.7,15.6v2.8c0,0.4-0.1,0.7-0.2,1.1c-0.1,0.3-0.3,0.6-0.6,0.9c-0.3,0.3-0.6,0.5-0.9,0.6
				c-0.3,0.1-0.7,0.2-1.1,0.2c-0.4,0-0.7-0.1-1.1-0.2c-0.3-0.1-0.6-0.4-0.9-0.6c-0.2-0.3-0.4-0.6-0.6-0.9c-0.1-0.3-0.2-0.7-0.2-1.1
				v-2.8h1.1v2.8c0,0.2,0,0.5,0.1,0.7c0.1,0.2,0.2,0.4,0.4,0.5c0.2,0.1,0.3,0.3,0.5,0.4c0.2,0.1,0.4,0.1,0.7,0.1
				c0.2,0,0.4,0,0.7-0.1c0.2-0.1,0.4-0.2,0.5-0.4c0.2-0.2,0.3-0.3,0.4-0.5c0.1-0.2,0.1-0.4,0.1-0.7v-2.8H44.7L44.7,15.6z"/>
			<path fill="#006BC4" d="M44.7,15.6h-0.1v2.8c0,0.4-0.1,0.7-0.2,1l0,0v0c-0.1,0.3-0.3,0.6-0.6,0.9c-0.2,0.2-0.5,0.4-0.9,0.6L43,21
				l0-0.1c-0.3,0.1-0.7,0.2-1,0.2c-0.4,0-0.7-0.1-1-0.2l0,0.1l0.1-0.1c-0.3-0.1-0.6-0.3-0.9-0.6l-0.1,0.1l0.1-0.1
				c-0.2-0.2-0.4-0.5-0.6-0.9l-0.1,0.1l0.1,0c-0.1-0.3-0.2-0.7-0.2-1v-2.7h0.9v2.7c0,0.2,0,0.5,0.1,0.7l0,0l0,0
				c0.1,0.2,0.2,0.4,0.4,0.6l0,0l0,0c0.2,0.2,0.4,0.3,0.6,0.4l0,0l0,0c0.2,0.1,0.5,0.1,0.7,0.1c0.2,0,0.5,0,0.7-0.1l0,0l0,0
				c0.2-0.1,0.4-0.2,0.6-0.4c0.2-0.2,0.3-0.4,0.4-0.6l-0.1,0l0.1,0.1c0.1-0.2,0.1-0.5,0.1-0.7v-2.7h1V15.6h-0.1H44.7l0-0.1h-1.2v2.9
				c0,0.2,0,0.4-0.1,0.6l0,0l0,0c-0.1,0.2-0.2,0.4-0.3,0.5c-0.1,0.1-0.3,0.2-0.5,0.3l0.1,0.1l0-0.1c-0.2,0.1-0.4,0.1-0.6,0.1
				c-0.2,0-0.4,0-0.6-0.1l0,0.1l0.1-0.1c-0.2-0.1-0.4-0.2-0.5-0.3l-0.1,0.1l0.1-0.1c-0.1-0.1-0.3-0.3-0.3-0.5L40.3,19l0.1,0
				c-0.1-0.2-0.1-0.4-0.1-0.6v-2.9H39v2.9c0,0.4,0.1,0.8,0.2,1.1l0,0v0c0.2,0.4,0.4,0.7,0.6,0.9l0,0v0c0.3,0.3,0.6,0.5,0.9,0.6l0,0
				v0c0.4,0.1,0.7,0.2,1.1,0.2c0.4,0,0.8-0.1,1.1-0.2l0,0c0.4-0.2,0.7-0.4,0.9-0.6c0.3-0.3,0.5-0.6,0.6-0.9l-0.1,0l0.1,0.1
				c0.2-0.4,0.2-0.7,0.2-1.1v-2.9h-0.1L44.7,15.6L44.7,15.6z"/>
			<path fill="#006BC4" d="M48.1,20.1c0.2,0,0.4,0,0.6-0.1c0.2-0.1,0.4-0.2,0.5-0.4c0.2-0.2,0.3-0.3,0.4-0.5
				c0.1-0.2,0.1-0.4,0.1-0.7v-1.7h-1.7c-0.2,0-0.4,0-0.7,0.1c-0.2,0.1-0.4,0.2-0.5,0.4c-0.2,0.1-0.3,0.3-0.4,0.5
				c-0.1,0.2-0.1,0.4-0.1,0.6c0,0.2,0,0.5,0.1,0.7c0.1,0.2,0.2,0.4,0.4,0.5c0.2,0.1,0.3,0.3,0.5,0.4C47.7,20,47.9,20.1,48.1,20.1
				 M50.9,13.4v5c0,0.4-0.1,0.7-0.2,1.1c-0.1,0.3-0.3,0.6-0.6,0.9c-0.2,0.3-0.5,0.5-0.9,0.6c-0.3,0.1-0.7,0.2-1.1,0.2
				c-0.4,0-0.7-0.1-1.1-0.2c-0.3-0.1-0.6-0.4-0.9-0.6c-0.3-0.3-0.5-0.6-0.6-0.9c-0.1-0.3-0.2-0.7-0.2-1.1c0-0.4,0.1-0.7,0.2-1.1
				c0.2-0.3,0.4-0.6,0.6-0.9c0.3-0.3,0.6-0.5,0.9-0.6c0.3-0.1,0.7-0.2,1.1-0.2h1.7v-2.2L50.9,13.4L50.9,13.4z"/>
			<path fill="#006BC4" d="M48.1,20.1v0.1c0.2,0,0.5,0,0.7-0.1l0,0c0.2-0.1,0.4-0.2,0.6-0.4c0.2-0.2,0.3-0.4,0.4-0.6l-0.1,0l0.1,0.1
				c0.1-0.2,0.1-0.5,0.1-0.7v-1.8h-1.8c-0.2,0-0.5,0-0.7,0.1l0,0.1l0-0.1c-0.2,0.1-0.4,0.2-0.6,0.4c-0.2,0.2-0.3,0.4-0.4,0.6l0,0
				c-0.1,0.2-0.1,0.4-0.1,0.7c0,0.2,0,0.5,0.1,0.7l0,0v0c0.1,0.2,0.2,0.4,0.4,0.6l0,0l0,0c0.2,0.2,0.4,0.3,0.6,0.4l0,0l0,0
				c0.2,0.1,0.5,0.1,0.7,0.1v-0.3c-0.2,0-0.4,0-0.6-0.1l0,0.1l0.1-0.1c-0.2-0.1-0.4-0.2-0.5-0.3l-0.1,0.1l0.1-0.1
				c-0.1-0.1-0.3-0.3-0.3-0.5L46.6,19l0.1,0c-0.1-0.2-0.1-0.4-0.1-0.6c0-0.2,0-0.4,0.1-0.6l-0.1,0l0.1,0.1c0.1-0.2,0.2-0.4,0.3-0.5
				c0.1-0.1,0.3-0.3,0.5-0.3l0,0l0,0c0.2-0.1,0.4-0.1,0.6-0.1h1.6v1.5c0,0.2,0,0.4-0.1,0.6v0l0,0c-0.1,0.2-0.2,0.4-0.3,0.5
				c-0.1,0.1-0.3,0.2-0.5,0.3l0.1,0.1l0-0.1c-0.2,0.1-0.4,0.1-0.6,0.1V20.1L48.1,20.1z M50.9,13.4h-0.1v5c0,0.4-0.1,0.7-0.2,1l0,0
				c-0.1,0.3-0.3,0.6-0.6,0.9l0,0l0,0c-0.2,0.2-0.5,0.4-0.8,0.6l0.1,0.1l0-0.1c-0.3,0.1-0.7,0.2-1,0.2c-0.4,0-0.7-0.1-1-0.2l0,0.1
				l0.1-0.1c-0.3-0.1-0.6-0.3-0.9-0.6c-0.2-0.2-0.4-0.5-0.6-0.9l-0.1,0.1l0.1,0c-0.1-0.3-0.2-0.7-0.2-1c0-0.4,0.1-0.7,0.2-1l-0.1,0
				l0.1,0.1c0.1-0.3,0.3-0.6,0.6-0.8l0,0c0.2-0.2,0.5-0.4,0.9-0.6l0,0c0.3-0.1,0.7-0.2,1-0.2h1.8v-2.2h1V13.4l-0.1,0L50.9,13.4
				l0-0.1h-1.2v2.2h-1.6c-0.4,0-0.8,0.1-1.1,0.2l0.1,0.1l0-0.1c-0.4,0.1-0.7,0.4-0.9,0.6l0.1,0.1l-0.1-0.1c-0.3,0.3-0.5,0.6-0.6,0.9
				l0,0v0c-0.1,0.3-0.2,0.7-0.2,1.1c0,0.4,0.1,0.8,0.2,1.1v0l0,0c0.2,0.4,0.4,0.7,0.6,0.9c0.3,0.3,0.6,0.5,0.9,0.6h0l0,0
				c0.4,0.1,0.7,0.2,1.1,0.2c0.4,0,0.8-0.1,1.1-0.2l0,0c0.4-0.2,0.7-0.4,0.9-0.6l-0.1-0.1l0.1,0.1c0.3-0.3,0.5-0.6,0.6-0.9l-0.1,0
				l0.1,0c0.2-0.4,0.2-0.7,0.2-1.1v-5.1h-0.1L50.9,13.4L50.9,13.4z"/>
		</g>
	</g>
</g>
</svg>
