<?xml version="1.0" encoding="utf-8"?>
<!-- Generator: Adobe Illustrator 18.0.0, SVG Export Plug-In . SVG Version: 6.00 Build 0)  -->
<!DOCTYPE svg PUBLIC "-//W3C//DTD SVG 1.1//EN" "http://www.w3.org/Graphics/SVG/1.1/DTD/svg11.dtd">
<svg version="1.1" id="Layer_1" xmlns="http://www.w3.org/2000/svg" xmlns:xlink="http://www.w3.org/1999/xlink" x="0px" y="0px"
	 viewBox="0 0 53.8 36.9" enable-background="new 0 0 53.8 36.9" xml:space="preserve">
<g>
	<g>
		<path fill="#00ABF1" d="M50.7,36.9H3.1c-1.7,0-3.1-1.4-3.1-3.1V3.1C0,1.4,1.4,0,3.1,0h47.7c1.7,0,3.1,1.4,3.1,3.1v30.7
			C53.8,35.5,52.4,36.9,50.7,36.9"/>
		<g>
			<path fill="#FFFFFF" d="M4.8,13.4l-1-2.5l-1,2.5 M27.7,12.4c-0.2,0.1-0.5,0.1-0.7,0.1h-1.8v-1.4h1.9c0.3,0,0.5,0,0.7,0.1
				c0.2,0.1,0.3,0.3,0.3,0.6C28,12.1,27.9,12.3,27.7,12.4z M40.8,13.4l-1-2.5l-1,2.5H40.8z M16.3,16.2h-1.5l0-5l-2.2,5h-1.3l-2.2-5
				v5H6l-0.6-1.4H2.2l-0.6,1.4H0l2.7-6.3H5l2.6,6v-6H10l2,4.3l1.8-4.3h2.5V16.2L16.3,16.2z M22.5,16.2h-5.1V9.8h5.1v1.3H19v1.1h3.5
				v1.3H19v1.3h3.5V16.2z M29.6,11.5c0,1-0.7,1.5-1.1,1.7c0.3,0.1,0.6,0.3,0.7,0.5c0.2,0.3,0.3,0.6,0.3,1.2v1.2H28l0-0.8
				c0-0.4,0-0.9-0.2-1.2c-0.2-0.2-0.6-0.3-1.1-0.3h-1.6v2.3h-1.5V9.8H27c0.8,0,1.3,0,1.8,0.3C29.3,10.4,29.6,10.8,29.6,11.5z
				 M32.1,16.2h-1.5V9.8h1.5V16.2z M50,16.2h-2.1l-2.9-4.8v4.8h-3.1l-0.6-1.4h-3.1l-0.6,1.4h-1.8c-0.7,0-1.7-0.2-2.2-0.7
				c-0.5-0.5-0.8-1.3-0.8-2.4c0-0.9,0.2-1.8,0.8-2.5c0.5-0.5,1.3-0.7,2.3-0.7h1.5v1.4h-1.4c-0.6,0-0.9,0.1-1.2,0.4
				c-0.3,0.3-0.4,0.8-0.4,1.4c0,0.7,0.1,1.2,0.4,1.5c0.2,0.3,0.7,0.3,1.1,0.3h0.7l2.1-5h2.3l2.6,6v-6h2.3l2.7,4.4V9.8H50V16.2
				L50,16.2z M0,17.4h2.6L3.2,16h1.3l0.6,1.4h5.1v-1.1l0.5,1.1h2.6l0.5-1.1v1.1h12.6l0-2.3h0.2c0.2,0,0.2,0,0.2,0.3v2h6.5v-0.5
				c0.5,0.3,1.3,0.5,2.4,0.5h2.8l0.6-1.4h1.3l0.6,1.4h5.3v-1.3l0.8,1.3h4.2V8.6h-4.2v1l-0.6-1h-4.3v1l-0.5-1h-5.8
				c-1,0-1.8,0.1-2.5,0.5V8.6h-4v0.5c-0.4-0.4-1-0.5-1.7-0.5H12.9l-1,2.3l-1-2.3H6.3v1l-0.5-1H1.8L0,12.8V17.4L0,17.4z"/>
			<path fill="#FFFFFF" d="M53.8,22.1h-2.8c-0.3,0-0.5,0-0.6,0.1c-0.2,0.1-0.2,0.3-0.2,0.5c0,0.2,0.1,0.4,0.3,0.5
				c0.2,0.1,0.3,0.1,0.6,0.1l0.8,0c0.8,0,1.4,0.2,1.7,0.5c0.1,0,0.1,0.1,0.1,0.2 M53.8,26.3c-0.4,0.5-1.1,0.8-2.1,0.8h-2.9v-1.4h2.9
				c0.3,0,0.5,0,0.6-0.2c0.1-0.1,0.2-0.2,0.2-0.4c0-0.2-0.1-0.3-0.2-0.4c-0.1-0.1-0.3-0.1-0.5-0.1c-1.4,0-3.2,0-3.2-2
				c0-0.9,0.6-1.9,2.2-1.9h3v-1.3H51c-0.8,0-1.5,0.2-1.9,0.5v-0.5H45c-0.7,0-1.4,0.2-1.8,0.5v-0.5h-7.4V20c-0.6-0.4-1.6-0.5-2-0.5
				h-4.9V20c-0.5-0.5-1.5-0.5-2.1-0.5h-5.5L20,20.8l-1.2-1.4h-8.2v8.8h8l1.3-1.4l1.2,1.4l4.9,0v-2.1h0.5c0.7,0,1.4,0,2.1-0.3v2.4
				h4.1V26H33c0.3,0,0.3,0,0.3,0.3v2h12.4c0.8,0,1.6-0.2,2.1-0.6v0.6h3.9c0.8,0,1.6-0.1,2.2-0.4V26.3L53.8,26.3z M47.8,23.7
				c0.3,0.3,0.4,0.7,0.4,1.3c0,1.4-0.9,2-2.4,2h-2.9v-1.4h2.9c0.3,0,0.5,0,0.6-0.2c0.1-0.1,0.2-0.2,0.2-0.4c0-0.2-0.1-0.3-0.2-0.4
				c-0.1-0.1-0.3-0.1-0.5-0.1c-1.4,0-3.2,0-3.2-2c0-0.9,0.6-1.9,2.2-1.9h3v1.3h-2.8c-0.3,0-0.5,0-0.6,0.1c-0.2,0.1-0.2,0.3-0.2,0.5
				c0,0.2,0.1,0.4,0.3,0.5c0.2,0.1,0.3,0.1,0.6,0.1l0.8,0C46.9,23.2,47.4,23.4,47.8,23.7z M34.1,23.3c-0.2,0.1-0.5,0.1-0.8,0.1h-1.8
				v-1.4h1.9c0.3,0,0.5,0,0.7,0.1c0.2,0.1,0.3,0.3,0.3,0.6C34.4,23,34.3,23.2,34.1,23.3z M35,24.1c0.3,0.1,0.6,0.3,0.7,0.5
				C36,25,36,25.3,36,25.8v1.3h-1.5v-0.8c0-0.4,0-0.9-0.2-1.2c-0.2-0.2-0.6-0.3-1.1-0.3h-1.6v2.3H30v-6.3h3.5c0.8,0,1.3,0,1.8,0.3
				c0.5,0.3,0.8,0.7,0.8,1.4C36.1,23.5,35.4,24,35,24.1z M37,20.7h5v1.3h-3.5v1.2h3.5v1.3h-3.5v1.3l3.5,0v1.3h-5V20.7z M26.8,23.7
				h-2v-1.6h2c0.5,0,0.9,0.2,0.9,0.8C27.7,23.4,27.3,23.7,26.8,23.7z M23.3,26.5L21,23.9l2.3-2.5V26.5z M17.3,25.8h-3.7v-1.3h3.3
				v-1.3h-3.3v-1.2h3.8l1.7,1.8L17.3,25.8z M29.3,22.8c0,1.8-1.3,2.1-2.6,2.1h-1.9v2.1h-2.9L20,25l-1.9,2.1h-6v-6.3h6.1l1.9,2.1
				l1.9-2.1h4.8C28,20.7,29.3,21.1,29.3,22.8z"/>
		</g>
	</g>
</g>
</svg>
