<?xml version="1.0" encoding="utf-8"?>
<!-- Generator: Adobe Illustrator 18.0.0, SVG Export Plug-In . SVG Version: 6.00 Build 0)  -->
<!DOCTYPE svg PUBLIC "-//W3C//DTD SVG 1.1//EN" "http://www.w3.org/Graphics/SVG/1.1/DTD/svg11.dtd">
<svg version="1.1" id="Layer_1" xmlns="http://www.w3.org/2000/svg" xmlns:xlink="http://www.w3.org/1999/xlink" x="0px" y="0px"
	 viewBox="0 0 53.8 36.9" enable-background="new 0 0 53.8 36.9" xml:space="preserve">
<g>
	<g>
		<path fill="#F1F1F1" d="M50.7,36.9H3.1c-1.7,0-3.1-1.4-3.1-3.1V3.1C0,1.4,1.4,0,3.1,0h47.7c1.7,0,3.1,1.4,3.1,3.1v30.7
			C53.8,35.5,52.4,36.9,50.7,36.9"/>
	</g>
	<rect x="0" y="24.1" fill="#CCCCCC" width="53.8" height="4.7"/>
	<g>
		<g>
			<path fill="#CCCCCC" d="M11.2,16.3v-1.7H9.6c-0.3,0-0.5-0.3-0.5-0.6c0-0.4,0.2-0.7,0.5-0.7h1.7v-1.7c0-0.3,0.3-0.5,0.7-0.5
				c0.4,0,0.6,0.2,0.6,0.5v1.7h1.7c0.3,0,0.5,0.3,0.5,0.7c0,0.4-0.2,0.6-0.5,0.6h-1.7v1.7c0,0.3-0.3,0.5-0.6,0.5
				C11.5,16.8,11.2,16.6,11.2,16.3z"/>
			<path fill="#CCCCCC" d="M20.9,13.3c0-0.9-0.6-1.5-1.4-1.5c-0.7,0-1.4,0.5-1.4,1.5v3.6c0,0.2-0.4,0.5-0.8,0.5
				c-0.4,0-0.8-0.3-0.8-0.5V11c0-0.3,0.3-0.5,0.8-0.5c0.4,0,0.7,0.2,0.7,0.5v0.5c0.3-0.6,1-1.1,1.9-1.1c0.9,0,1.6,0.6,1.9,1.5
				c0.5-1,1.4-1.5,2.2-1.5c1.3,0,2.5,1,2.5,2.9v3.6c0,0.2-0.3,0.5-0.8,0.5c-0.4,0-0.8-0.3-0.8-0.5v-3.6c0-1-0.7-1.5-1.4-1.5
				c-0.7,0-1.4,0.6-1.4,1.5v3.6c0,0.3-0.4,0.5-0.8,0.5c-0.3,0-0.8-0.1-0.8-0.5V13.3z"/>
			<path fill="#CCCCCC" d="M34.3,13.3v3.6c0,0.3-0.3,0.5-0.7,0.5c-0.4,0-0.7-0.2-0.7-0.5v-0.5c-0.5,0.6-1.2,1.1-2.2,1.1
				c-1.1,0-1.9-0.6-1.9-1.9c0-1.6,1.4-2.1,3.4-2.1h0.6v-0.3c0-0.7-0.4-1.6-1.4-1.6c-1.1,0-1.3,0.4-1.6,0.4c-0.4,0-0.6-0.4-0.6-0.8
				c0-0.5,1.2-0.9,2.2-0.9C33.5,10.4,34.3,11.8,34.3,13.3z M32.7,14.4h-0.4c-1.1,0-2.1,0.1-2.1,1c0,0.7,0.4,0.9,0.9,0.9
				c0.7,0,1.6-0.8,1.6-1.5V14.4z M31,9c-0.1,0-0.1,0-0.2,0c-0.3,0-0.5-0.3-0.5-0.6c0-0.2,0.1-0.3,0.2-0.4l1.8-0.9c0.1,0,0.1,0,0.2,0
				c0.3,0,0.5,0.3,0.5,0.6C33,7.9,33,8,32.8,8.1L31,9z"/>
			<path fill="#CCCCCC" d="M40,15.6c0-1.5-3.5-0.6-3.5-3c0-1,0.7-2.1,2.5-2.1c1.1,0,2.2,0.4,2.2,0.9c0,0.2-0.2,0.7-0.6,0.7
				c-0.3,0-0.8-0.4-1.6-0.4c-0.9,0-1.2,0.5-1.2,0.8c0,1.3,3.5,0.4,3.5,3.1c0,1.2-0.9,2-2.6,2c-1.4,0-2.5-0.6-2.5-1.2
				c0-0.3,0.2-0.7,0.5-0.7c0.4,0,0.7,0.7,1.9,0.7C39.7,16.4,40,16,40,15.6z"/>
		</g>
	</g>
</g>
</svg>
