<?xml version="1.0" encoding="utf-8"?>
<!-- Generator: Adobe Illustrator 18.0.0, SVG Export Plug-In . SVG Version: 6.00 Build 0)  -->
<!DOCTYPE svg PUBLIC "-//W3C//DTD SVG 1.1//EN" "http://www.w3.org/Graphics/SVG/1.1/DTD/svg11.dtd">
<svg version="1.1" id="Layer_1" xmlns="http://www.w3.org/2000/svg" xmlns:xlink="http://www.w3.org/1999/xlink" x="0px" y="0px"
	 viewBox="0 0 53.8 36.9" enable-background="new 0 0 53.8 36.9" xml:space="preserve">
<g>
	<g>
		<path fill="#F1F1F1" d="M50.7,36.9H3.1c-1.7,0-3.1-1.4-3.1-3.1V3.1C0,1.4,1.4,0,3.1,0h47.7c1.7,0,3.1,1.4,3.1,3.1v30.7
			C53.8,35.5,52.4,36.9,50.7,36.9"/>
	</g>
	<g>
		
			<ellipse transform="matrix(0.9189 -0.3945 0.3945 0.9189 -1.5462 15.0638)" fill="#E83F2E" cx="35.9" cy="11.3" rx="3.7" ry="2.6"/>
		<g>
			<path fill="#373379" d="M30.3,18.9l-5.3,0l-0.5,1.4h0.6c0,0,0.3,0.1,0.2,0.5l-2,5h2l0.8-1.9h2.4c0,0,1.2,0,1.8-1.1l1.1-2.7
				C31.4,20.1,31.7,19.2,30.3,18.9z M29.1,20.9l-0.6,1.3c0,0-0.1,0.3-0.6,0.3l-1.3,0l0.8-2.1h1.4C28.8,20.4,29.2,20.4,29.1,20.9z"/>
		</g>
		<g>
			<path fill="#373379" d="M37.1,21.7l1.1-2.8H34c0,0-1.7,0.2-2.1,1.3L31,22.3c0,0-0.4,1.4,0.8,1.5h5.4l0.6-1.3
				C37.7,22.5,36.7,22.6,37.1,21.7z M34.8,22.5h-1.4c0,0-0.3,0-0.2-0.6c0,0,0.5-1.6,1.1-1.6l1.3,0L34.8,22.5z"/>
		</g>
		<g>
			<path fill="#373379" d="M44.3,20.4l-0.7-0.8c-0.3-0.3,0-0.6,0-0.6l0.4-0.3l-0.9-1c-2.8,1.4-5,2.9-5,2.9c-0.4,0.5,0,1.1,0,1.1
				l1.8,1.8c0.2,0.5-0.3,0.6-0.3,0.6l-1.2,0l-0.6,1.4c0.3,0,2.2,0,2.2,0c1.7-0.9,2.2-1.6,2.2-1.6c0.3-0.4,0-0.9,0-0.9
				c-0.2-0.3,0.1-0.4,0.1-0.4c1.4-0.8,2.1-1.4,2.1-1.4C44.5,20.9,44.3,20.4,44.3,20.4z M42.2,21.1l-1.5,0.9c-0.2,0.1-0.4,0-0.4,0
				l-0.6-0.7c-0.2-0.2,0.1-0.5,0.1-0.5l1.2-0.7c0.5-0.2,0.7,0,0.7,0l0.5,0.5C42.3,20.9,42.2,21.1,42.2,21.1z"/>
		</g>
		<g>
			<path fill="#373379" d="M51.7,20.6c0,0-1.5-1.5-1.9-1.6c0,0-0.8-0.4-1.6,0c0,0-2.4,1.2-3.5,1.9c0,0-0.7,0.5-0.4,1.2
				c0,0,1.4,1.6,1.8,1.8c0,0,0.5,0.4,1.5,0.1c0,0,2.7-1,4-2.3C51.7,21.7,52.1,21.2,51.7,20.6z M49.5,21.6c0,0.1-1.4,0.8-1.4,0.8
				c-0.4,0.2-0.7,0-0.7,0c-0.2-0.1-0.6-0.6-0.6-0.6c-0.2-0.2,0-0.4,0-0.4c0.3-0.3,1.4-0.8,1.4-0.8c0.3-0.2,0.7,0,0.7,0l0.6,0.6
				C49.7,21.3,49.5,21.6,49.5,21.6z"/>
		</g>
		<path fill="#E83F2E" d="M24.2,19h-2c0,0-1.3,3.1-1.4,3.5c0,0-0.2,0.7,0.1,1c0,0,0.4,0.4,0.8,0.4l1.4,0l0.6-1.4h-0.4
			c0,0-0.5-0.1-0.3-0.6L24.2,19z"/>
		<path fill="#E83F2E" d="M23.3,17c0,0,0.7-0.2,1.2,0c0,0,0.5,0.3,0.1,0.9c0,0-0.3,0.6-1.3,0.6c0,0-0.8,0.1-0.8-0.5
			C22.5,17.9,22.5,17.3,23.3,17z"/>
		<g>
			<path fill="#E83F2E" d="M20.8,19.3c0,0-0.3-0.3-0.9-0.3l-5,0l-0.5,1.4h0.4c0,0,0.5,0,0.2,0.7L13,25.8l2,0l0.7-2l2.6,0
				c0,0,0.7,0.1,1.4-0.7c0,0,1-1.6,1.3-2.8C20.9,20.3,21.2,19.6,20.8,19.3z M18.7,20.9c0,0.3-0.5,1.2-0.5,1.2
				c-0.3,0.3-0.7,0.3-0.7,0.3h-1.3l0.9-2.1h1.3C18.9,20.4,18.7,20.9,18.7,20.9z"/>
		</g>
		<path fill="#E83F2E" d="M13.1,21.7l1.1-2.7l-4,0c-0.6,0-1.3,0.3-1.3,0.3C8.2,19.6,8,20.1,8,20.1c-0.3,0.4-0.9,2.1-0.9,2.1
			c-0.3,0.8,0,1.1,0,1.1c0.3,0.5,1,0.5,1,0.5l5.1,0l0.6-1.4l-0.6-0.1C12.8,22.3,13.1,21.7,13.1,21.7z M10.8,22.4l-1.3,0
			c0,0-0.5,0-0.3-0.7c0,0,0.2-0.8,0.5-1.1c0,0,0.2-0.3,0.7-0.3l1.2,0L10.8,22.4z"/>
		<path fill="#E83F2E" d="M7.9,19l-0.6,1.4H5.7c0,0-0.4-0.1-0.7,0.5l-1.2,3l-2,0l2-4.9L7.9,19z"/>
		<path fill="#373379" d="M35.3,7.6c0,0-1.9,0.7-2.6,1.4c0,0-1.1,1-1.5,2.6c0,0-0.2,1.5,0.5,2.2c0,0,0.7,0.9,1.3,1.1
			c0,0,0.9,0.4,2.3,0.3c0,0,2.3-0.3,3.5-1.6c0,0-0.6,1.2-2.5,2.5c0,0-1.3,0.9-3.3,1.4c0,0-1.9,0.5-3.5,0.1c0,0-1.7-0.3-2.5-1.3
			c0,0-0.9-0.8-0.9-2c0,0-0.1-1.4,1-2.9c0,0,1.1-1.4,2.3-2.1c0,0,1.5-0.8,2.6-1.2C32.2,8,33.7,7.5,35.3,7.6z"/>
	</g>
</g>
</svg>
