<?xml version="1.0" encoding="utf-8"?>
<!-- Generator: Adobe Illustrator 18.0.0, SVG Export Plug-In . SVG Version: 6.00 Build 0)  -->
<!DOCTYPE svg PUBLIC "-//W3C//DTD SVG 1.1//EN" "http://www.w3.org/Graphics/SVG/1.1/DTD/svg11.dtd">
<svg version="1.1" id="Layer_1" xmlns="http://www.w3.org/2000/svg" xmlns:xlink="http://www.w3.org/1999/xlink" x="0px" y="0px"
	 viewBox="0 0 53.8 36.9" enable-background="new 0 0 53.8 36.9" xml:space="preserve">
<g>
	<g>
		<g>
			<path fill="#F1F1F1" d="M50.7,36.9H3.1c-1.7,0-3.1-1.4-3.1-3.1V3.1C0,1.4,1.4,0,3.1,0h47.7c1.7,0,3.1,1.4,3.1,3.1v30.7
				C53.8,35.5,52.4,36.9,50.7,36.9"/>
		</g>
	</g>
	<g>
		<path fill="#EF0000" d="M22.5,18.4c0-4,1.7-7.7,4.5-10.2c-2.5-2.3-5.8-3.7-9.4-3.7C10,4.6,3.7,10.8,3.7,18.4S10,32.3,17.6,32.3
			c3.6,0,6.9-1.4,9.4-3.7C24.2,26.1,22.5,22.5,22.5,18.4z"/>
		<path fill="#F9A000" d="M36.3,4.6c-3.6,0-6.9,1.4-9.4,3.7c2.8,2.5,4.5,6.2,4.5,10.2s-1.7,7.7-4.5,10.2c2.5,2.3,5.8,3.7,9.4,3.7
			c7.7,0,13.9-6.2,13.9-13.9S44,4.6,36.3,4.6z"/>
		<path fill="#FF5F00" d="M31.5,18.4c0-4-1.7-7.7-4.5-10.2c-2.8,2.5-4.5,6.2-4.5,10.2s1.7,7.7,4.5,10.2
			C29.7,26.1,31.5,22.5,31.5,18.4z"/>
	</g>
</g>
</svg>
