<?xml version="1.0" encoding="utf-8"?>
<!-- Generator: Adobe Illustrator 18.0.0, SVG Export Plug-In . SVG Version: 6.00 Build 0)  -->
<!DOCTYPE svg PUBLIC "-//W3C//DTD SVG 1.1//EN" "http://www.w3.org/Graphics/SVG/1.1/DTD/svg11.dtd">
<svg version="1.1" id="Layer_1" xmlns="http://www.w3.org/2000/svg" xmlns:xlink="http://www.w3.org/1999/xlink" x="0px" y="0px"
	 viewBox="0 0 53.8 36.9" enable-background="new 0 0 53.8 36.9" xml:space="preserve">
<g>
	<g>
		<path fill="#F1F1F1" d="M50.7,36.9H3.1c-1.7,0-3.1-1.4-3.1-3.1V3.1C0,1.4,1.4,0,3.1,0h47.7c1.7,0,3.1,1.4,3.1,3.1v30.7
			C53.8,35.5,52.4,36.9,50.7,36.9"/>
		<polygon fill="#004E99" points="19.8,24.9 22,12.1 25.4,12.1 23.3,24.9 		"/>
		<path fill="#004E99" d="M35.9,12.4c-0.7-0.3-1.8-0.5-3.1-0.5c-3.4,0-5.9,1.7-5.9,4.2c0,1.8,1.7,2.9,3.1,3.5c1.4,0.6,1.8,1,1.8,1.6
			c0,0.9-1.1,1.2-2.1,1.2c-1.4,0-2.1-0.2-3.3-0.7l-0.4-0.2l-0.5,2.9c0.8,0.4,2.3,0.7,3.9,0.7c3.7,0,6-1.7,6.1-4.4
			c0-1.5-0.9-2.6-2.9-3.5c-1.2-0.6-2-1-2-1.6c0-0.5,0.6-1.1,2-1.1c1.1,0,2,0.2,2.6,0.5l0.3,0.1L35.9,12.4"/>
		<path fill="#004E99" d="M44.8,12.1h-2.7c-0.8,0-1.5,0.2-1.8,1.1l-5.2,11.7h3.7c0,0,0.6-1.6,0.7-1.9c0.4,0,4,0,4.5,0
			c0.1,0.4,0.4,1.9,0.4,1.9h3.2L44.8,12.1 M40.5,20.3c0.3-0.7,1.4-3.6,1.4-3.6c0,0,0.3-0.7,0.5-1.2l0.2,1.1c0,0,0.7,3.1,0.8,3.7
			H40.5z"/>
		<path fill="#004E99" d="M16.9,12.1l-3.4,8.7L13.1,19c-0.6-2-2.6-4.3-4.8-5.4l3.1,11.2l3.7,0l5.5-12.8H16.9"/>
		<path fill="#F7A500" d="M10.3,12.1H4.7l0,0.3C9,13.4,11.9,16,13.1,19l-1.2-5.9C11.6,12.3,11,12.1,10.3,12.1"/>
	</g>
</g>
</svg>
