<?xml version="1.0" encoding="utf-8"?>
<!-- Generator: Adobe Illustrator 18.0.0, SVG Export Plug-In . SVG Version: 6.00 Build 0)  -->
<!DOCTYPE svg PUBLIC "-//W3C//DTD SVG 1.1//EN" "http://www.w3.org/Graphics/SVG/1.1/DTD/svg11.dtd">
<svg version="1.1" id="Layer_1" xmlns="http://www.w3.org/2000/svg" xmlns:xlink="http://www.w3.org/1999/xlink" x="0px" y="0px"
	 viewBox="0 0 53.8 36.9" enable-background="new 0 0 53.8 36.9" xml:space="preserve">
<g>
	<g>
		<g>
			<defs>
				<path id="SVGID_1_" d="M50.7,36.9H3.1c-1.7,0-3.1-1.4-3.1-3.1V3.1C0,1.4,1.4,0,3.1,0h47.7c1.7,0,3.1,1.4,3.1,3.1v30.7
					C53.8,35.5,52.4,36.9,50.7,36.9"/>
			</defs>
			<clipPath id="SVGID_2_">
				<use xlink:href="#SVGID_1_"  overflow="visible"/>
			</clipPath>
			<path clip-path="url(#SVGID_2_)" fill="#F1590B" d="M50.7,36.9H3.1c-1.7,0-3.1-1.4-3.1-3.1V3.1C0,1.4,1.4,0,3.1,0h47.7
				c1.7,0,3.1,1.4,3.1,3.1v30.7C53.8,35.5,52.4,36.9,50.7,36.9"/>
			<g clip-path="url(#SVGID_2_)">
				<g>
					<g>
						<g>
							<path fill="#FFFFFF" d="M4.8,19.4h2.9l3.9,7.3l0-7.3h2v10h-2.7L7,22h0v7.5l-1.2,0L4.8,19.4z"/>
							<path fill="#FFFFFF" d="M21.2,22.1l2,0l0.2,1c0,0,0.4-1.2,1.6-1.2c0.2,0,0.4,0,0.6,0.1v1.9c-0.2-0.1-0.5-0.2-0.9-0.2
								c-1.6,0-1.6,2-1.6,3v2.7h-1.9V22.1z"/>
							<path fill="#FFFFFF" d="M26.2,22.4c0.7-0.3,1.8-0.6,2.6-0.6c2.3,0,3.2,0.9,3.2,3.1v0.9c0,0.7,0,1.3,0,1.9
								c0,0.6,0,1.1,0.1,1.7h-0.6c-0.9,0-1.2-0.9-1.2-1.1h0c-0.4,0.8-1.4,1.3-2.3,1.3c-1.3,0-2.6-0.8-2.6-2.2c0-1.1,0.5-1.8,1.3-2.1
								c0.7-0.4,1.7-0.4,2.5-0.4h1.1c0-1.2-0.5-1.6-1.7-1.6c-0.8,0-1.6,0.3-2.3,0.8L26.2,22.4z M28.5,28.2c0.6,0,1-0.3,1.4-0.7
								c0.3-0.4,0.4-0.9,0.4-1.5h-0.8c-0.9,0-2.1,0.1-2.1,1.3C27.3,27.9,27.8,28.2,28.5,28.2z"/>
							<path fill="#FFFFFF" d="M32.3,22.1h2.6v1h0c0.6-0.8,1.4-1.2,2.4-1.2c1.8,0,2.5,1.2,2.5,2.9v4.7h-1.9v-4c0-0.9,0-2.1-1.3-2.1
								c-1.4,0-1.7,1.5-1.7,2.5l0,3.6l-0.9,0L32.3,22.1z"/>
						</g>
						<path fill="#FFFFFF" d="M39.8,32c1-0.1,1.2-0.3,1.2-1.4V22h1.8l0.2,0.2V30c0,1.1-0.3,2.7-2.2,2.7c-0.3,0-0.7,0-1-0.1L39.8,32z
							"/>
					</g>
				</g>
				<path fill="#FFFFFF" d="M20.5,27.8c0-0.5,0-1.1,0-1.9V25c0-2.2-0.9-3.1-3.2-3.1c-0.8,0-1.8,0.2-2.6,0.6l0.1,1.7
					c0.6-0.5,1.5-0.8,2.3-0.8c1.1,0,1.7,0.4,1.7,1.6h-1.1c-0.8,0-1.8,0.1-2.5,0.4c-0.4,0.2-0.7,0.4-0.9,0.8l0.5,3
					c0.5,0.4,1.1,0.6,1.8,0.6c0.9,0,1.8-0.5,2.3-1.3h0c0,0.2,0.2,1.1,1.2,1.1h0.6C20.5,28.9,20.5,28.4,20.5,27.8z M18.3,27.6
					c-0.3,0.4-0.8,0.7-1.4,0.7c-0.7,0-1.2-0.3-1.2-0.9c0-1.1,1.3-1.3,2.1-1.3h0.8C18.7,26.6,18.6,27.1,18.3,27.6z"/>
				<path fill="#FFFFFF" d="M50.1,27.8c0-0.5,0-1.1,0-1.9V25c0-2.2-0.9-3.1-3.2-3.1c-0.8,0-1.8,0.2-2.6,0.6l0.1,1.7
					c0.6-0.5,1.5-0.8,2.3-0.8c1.1,0,1.7,0.4,1.7,1.6h-1.1c-0.8,0-1.8,0.1-2.5,0.4c-0.3,0.2-0.6,0.4-0.8,0.6l1.2,3.5
					c0.3,0.1,0.6,0.2,1,0.2c0.9,0,1.8-0.5,2.3-1.3h0c0,0.2,0.2,0.8,1.2,1.1h0.6C50.1,28.9,50.1,28.4,50.1,27.8z M47.9,27.6
					c-0.3,0.4-0.8,0.7-1.4,0.7c-0.7,0-1.2-0.3-1.2-0.9c0-1.1,1.3-1.3,2.1-1.3h0.8C48.3,26.6,48.2,27.1,47.9,27.6z"/>
				<path fill="#FFFFFF" d="M45-17.5l-0.3,0.1c1.6,14.1,4.8,28.5,9.4,41.2v-0.2v-0.9C49.6,10.3,46.5-3.6,45-17.5z M35.8-15.3
					C37.4,6.4,43,27.7,51.7,46.1c0.1-0.1,0.2-0.1,0.3-0.2C43.3,27.5,37.7,6.2,36.2-15.3L35.8-15.3z M7.6-8.4L7.2-8.3
					C5.6-0.8,4.7,6.8,4.6,14.3c0,0.4,0,0.8,0,1.2c0,7.3,0.8,14.4,2.3,21.6l0.4,0.1C5.7,29.9,5,22.7,5,15.4c0-0.4,0-0.8,0-1.2
					C5,6.7,6-0.8,7.6-8.4z M13,7.4c0-5.7,0.4-11.6,1.1-17.4l-0.4,0.1c-0.7,5.7-1.1,11.6-1.1,17.3c0,0.3,0,0.5,0,0.8
					c0.1,10.6,1.5,21,4.4,31.2l0.4,0.1C14.6,29.2,13.1,18.7,13,8.1C13,7.9,13,7.6,13,7.4z M28.2-13.4l-0.3,0.1c0,1.4,0,2.8,0.1,4.2
					c0.6,18.9,4.4,36.9,11.4,53.6l0.4,0.1c-7-16.8-10.8-34.8-11.4-53.7C28.2-10.5,28.2-12,28.2-13.4z M21-4.1c0-2.5,0.1-5,0.2-7.6
					l-0.4,0.1c-0.1,2.5-0.2,5-0.2,7.5c0,1.2,0,2.3,0,3.4C21,14,23.5,28.3,28.3,42l0.4,0.1C23.9,28.4,21.3,14,21-0.7
					C21-1.9,21-3,21-4.1z"/>
			</g>
		</g>
	</g>
</g>
</svg>
