<?xml version="1.0" encoding="utf-8"?>
<!-- Generator: Adobe Illustrator 18.0.0, SVG Export Plug-In . SVG Version: 6.00 Build 0)  -->
<!DOCTYPE svg PUBLIC "-//W3C//DTD SVG 1.1//EN" "http://www.w3.org/Graphics/SVG/1.1/DTD/svg11.dtd">
<svg version="1.1" id="Layer_1" xmlns="http://www.w3.org/2000/svg" xmlns:xlink="http://www.w3.org/1999/xlink" x="0px" y="0px"
	 viewBox="0 0 53.8 36.9" enable-background="new 0 0 53.8 36.9" xml:space="preserve">
<g>
	<g>
		<path fill="#FFDF00" d="M50.7,36.9H3.1c-1.7,0-3.1-1.4-3.1-3.1V3.1C0,1.4,1.4,0,3.1,0h47.7c1.7,0,3.1,1.4,3.1,3.1v30.7
			C53.8,35.5,52.4,36.9,50.7,36.9"/>
	</g>
	<g>
		<g>
			<polygon fill="#FFFFFF" points="45.3,16.1 38.7,17.1 32,18.4 23.5,21 17.7,24.8 18.1,29.5 32.1,35.7 46.6,16.6 			"/>
			<path fill-rule="evenodd" clip-rule="evenodd" fill="#EE008B" d="M12,7.3l23.4-6.1l4.1,15.2l9-2.3l-8.6,11.3l-0.1,0
				c0,0-0.8,0.2-1,0.1c-0.2-0.1,0.3-1.1,0.6-1.8c0.3-0.7,0.8-2.3,1.3-3.2c0.5-0.9,1.1-1.7,1.3-1.7c0.2-0.1,0.3-0.7,0.2-1
				c-0.1-0.3,0-0.6-0.3-0.6c-0.3,0-0.5,0.9-0.9,1.4c-0.4,0.5-1.3,2.2-2,3.7c-0.8,1.5-2.2,3.3-3,4.1c-0.8,0.6-0.2-0.6-0.1-0.9
				c0.1-0.4,0.5-1.4,0.5-1.4s0.6-0.7-0.2-0.5c-0.8,0.3-1.6,1.5-1.6,1.5s-2,2.5-2.7,3c-0.7,0.5-0.5-0.3-0.4-1.1c0.1-0.8,1-1.7,1-1.7
				L33,25c0,0-0.2,0.8,0,0.7c0.2,0,0.4-0.4,0.4-0.6c0-0.3,0-1.5-0.2-1.3C33,24,31.8,25,31.5,25.4c-0.4,0.4-1.6,2-2.1,2.8
				s-0.1-0.4-0.1-0.4s0.2-0.6,0.2-0.9c0-0.3-0.4-0.1-0.4-0.1l-0.5,0.5c0,0-0.1,0.1-0.1,0.5c0,0.4-0.5,1-1.1,1.4
				c-0.5,0.3-0.3-0.3-0.3-0.3s0.2-0.7,0.7-1.6c0.5-0.9,1.1-1,1.4-1.1c0.3-0.1,0.2-0.4,0.1-0.5c-0.1-0.2-0.5,0-0.6,0
				c-0.2,0.2-4.2,3.5-4.4,4.1c-0.2,0.6,0.4,0.1,0.4,0.1l1.6-1.7l0.1-0.1l0,0.4c0,0-0.5,0.8-0.4,1.4c0.1,0.5,0.5,0.4,0.7,0.3
				c0.2,0,0.7-0.7,1.1-1c0.3-0.3,0.4,0,0.5,0.2c0.1,0.2,0.6-0.1,0.6-0.1s1.1-1.5,1.3-1.8c0.3-0.3,0.6-0.3,0.6-0.3s-0.1,0.4,0.2,1
				c0.4,0.6,1,0.1,1.4-0.1c0.4-0.3,1.6-1.8,1.9-2.2c0.3-0.4,0.7-0.5,0.7-0.5s-0.2,1.2-0.1,1.6c0.1,0.3,0.6,0.4,1.3-0.2
				c0.6-0.6,2-2.6,2-2.6s-0.3,1-0.2,1.7c0.1,0.7,0.7,0.5,1,0.4c0.2-0.1,0.5-0.3,0.7-0.4l-7.3,9.6l-10-4.4c0.3-1,1.4-4.2,1.5-4.4
				c1.1-0.3,2.2-0.7,2.2-0.7c0.1-0.3,0.2-0.6,0.5-1c0.2-0.4-0.3-0.3-0.3-0.3s-1,0.7-1.4,0.9c-0.6,0.3-0.4-0.3-0.4-0.3
				s0.9-1.8,1.1-2.5c0.3-0.7,1.1-0.7,1.8-1c0.7-0.3,5.2-1.7,5.9-2c0.8-0.3,0.6-1.4,0.6-1.4s-0.8,0.4-1.4,0.6c-0.6,0.2-4.8,1.8-5.3,2
				c-0.5,0.2-0.2-0.2-0.2-0.5c0-0.3-0.2-0.2-0.2-0.2s-0.6,0.3-0.9,0.4c-0.4,0.1-0.6,0.8-0.6,0.8s-3.7,1.7-4.5,2.7
				c-0.8,0.9,0.5,0.5,0.5,0.5s3.6-2.1,3.3-1.6c-0.3,0.5-1.5,3.4-1.5,3.4s-1.2,0.8-1.6,1.1c-0.4,0.3-0.2,1-0.2,1s1.7-1.4,1.5-0.9
				c-0.2,0.4-0.7,2.5-0.9,3.2L7.2,24.7l8.7-2.3L12,7.3L12,7.3z M30,24.5c0,0,1-1.1,1.1-1.5c0.1-0.4,0.7-0.4,0.7,0c0,0.4-1,1.2-1,1.2
				s-0.5,0.5-0.7,0.5C29.9,24.7,30,24.5,30,24.5L30,24.5z M36.7,22.6c0,0-0.3,0-0.3-0.5c0-0.5,0.2-0.4,0.4-0.6
				c0.3-0.2,0.5-0.5,0.5-0.1c0,0.4,0,0.6-0.3,0.9C36.8,22.5,36.7,22.6,36.7,22.6L36.7,22.6z"/>
		</g>
		<g>
			<path fill="#FFFFFF" d="M5.3,15.3l5.2-1.4c1-0.2,1.8-0.4,2.4-0.4c0.7,0,1.2,0.1,1.7,0.3c0.5,0.2,0.8,0.6,1,1
				c0.1,0.2,0.2,0.4,0.2,0.7c0.4,1.8-0.9,3.1-3.9,3.9l-1.8,0.5l0.6,2.5l-3.6,0.9L5.3,15.3L5.3,15.3z M26.2,10.1L26.2,10.1
				c0.1-0.1,0.3-0.2,0.4-0.2c0.7-0.4,1.4-0.7,2.4-1c0.5-0.1,0.9-0.2,1.3-0.3c0.4,0,0.8-0.1,1.2,0c0.8,0,1.4,0.2,2,0.5
				c0.6,0.3,1,0.8,1.3,1.3l0,0l-1.9,0.5l0,0.9l2.3-0.6l1,4.4l-2.3,0.6l-0.3-0.7c-0.2,0.3-0.4,0.5-0.7,0.7v0h0
				c-0.6,0.5-1.4,0.9-2.4,1.1c-1.4,0.4-2.6,0.4-3.7,0c-1.1-0.3-1.8-1-2.3-1.8l-0.2-0.5l-0.1-0.4c-0.3-1.3,0-2.4,0.7-3.5
				C25.3,10.9,25.7,10.5,26.2,10.1L26.2,10.1L26.2,10.1z M9.3,16.2L9.7,18l1.5-0.4c0.4-0.1,0.8-0.3,1-0.6c0.2-0.3,0.3-0.6,0.1-0.9
				c-0.2-0.4-0.9-0.5-2-0.2L9.3,16.2L9.3,16.2z M16.9,12.3l3.7-0.9l5.8,7l-3.6,0.9l-0.7-1l-3.6,0.9l-0.1,1.2l-3.5,0.9L16.9,12.3
				L16.9,12.3z M18.8,17.4l2.3-0.6l-1.8-2.6L18.8,17.4L18.8,17.4z M40.5,5.9c1.6-0.4,3-0.4,4-0.1c0.5,0.2,1,0.4,1.4,0.8
				c0.2,0.2,0.4,0.3,0.5,0.5c0.2,0.2,0.3,0.4,0.4,0.7l0.2,0.4l0.1,0.3c0.2,0.7,0.2,1.5-0.1,2.3c-0.3,0.8-0.8,1.5-1.6,2.1
				c-0.8,0.6-1.8,1.1-3,1.4c-1.6,0.4-3,0.4-4.1,0c-1.1-0.4-1.9-1-2.3-1.9L36,12.3l-0.1-0.4l-0.1-0.3c-0.2-0.8-0.1-1.5,0.2-2.2
				c0.3-0.7,0.8-1.4,1.6-2C38.3,6.7,39.3,6.3,40.5,5.9L40.5,5.9z M40.9,7.9c-1.6,0.4-2,1.6-1.3,3.5c0.5,1,1.3,1.3,2.4,1
				c0.9-0.2,1.4-0.7,1.6-1.4c0.2-0.7,0.1-1.4-0.2-2.1c-0.2-0.5-0.5-0.8-1-1C42,7.8,41.5,7.8,40.9,7.9L40.9,7.9z"/>
			<path fill="#FFFFFF" d="M7.2,24.7c-0.3,0-0.5-0.1-0.7-0.2c-0.3-0.2-0.6-0.5-0.6-0.9l-1.9-8c-0.2-0.7,0.3-1.5,1-1.7l5.2-1.4
				c1-0.3,1.9-0.4,2.6-0.4l0.1,0c0.9,0,1.7,0.1,2.3,0.4c0,0,0.1,0,0.1,0.1l0.2-0.7c0.1-0.5,0.5-0.9,1-1l3.7-0.9
				c0.5-0.1,1.1,0,1.4,0.5l1.4,1.7c0.2-0.6,0.5-1.2,0.9-1.7c0.4-0.5,0.8-1,1.4-1.4c0.1-0.1,0.2-0.2,0.3-0.2c0.1-0.1,0.2-0.1,0.3-0.2
				c0.8-0.5,1.7-0.8,2.7-1.1c0.6-0.1,1-0.2,1.5-0.3c0.5-0.1,0.9-0.1,1.5,0c1,0,1.9,0.3,2.6,0.7c0.2,0.1,0.4,0.3,0.6,0.4
				c0.4-0.8,1-1.5,1.8-2.1c0.9-0.7,2.1-1.3,3.5-1.7c1.9-0.5,3.5-0.5,4.9,0c0.7,0.2,1.3,0.6,1.8,1c0.3,0.2,0.5,0.5,0.7,0.8
				c0.2,0.3,0.4,0.6,0.6,0.9l0.2,0.4c0,0.1,0.1,0.1,0.1,0.2l0.1,0.3c0.3,1.1,0.2,2.1-0.1,3.2c-0.4,1-1.1,2-2.1,2.8
				c-1,0.8-2.1,1.3-3.5,1.7c-1.9,0.5-3.5,0.5-4.9,0c-0.1,0-0.2-0.1-0.3-0.1c0.1,0.7-0.3,1.4-1,1.5l-2.3,0.6c-0.3,0.1-0.6,0.1-0.8,0
				c-0.7,0.5-1.6,0.9-2.6,1.1c-1.2,0.3-2.3,0.4-3.4,0.2c-0.2,0.3-0.5,0.5-0.8,0.6l-3.6,0.9c-0.6,0.1-1.1-0.1-1.5-0.5l-0.1-0.2
				l-1.7,0.5l0,0.2c-0.1,0.6-0.5,1-1,1.2l-3.5,0.9c-0.5,0.1-1,0-1.3-0.3s-0.5-0.8-0.4-1.3l0.1-0.7c-0.4,0.1-0.8,0.3-1.3,0.4
				l-0.5,0.1l0.3,1.2c0.2,0.7-0.3,1.5-1,1.7l-3.6,0.9C7.4,24.7,7.3,24.7,7.2,24.7z M7,16.3l1.2,5.3l0.9-0.2l-0.3-1.2
				c-0.1-0.4,0-0.7,0.2-1c-0.3-0.2-0.5-0.5-0.6-0.9L8,16.5c0-0.2,0-0.3,0-0.5L7,16.3z M17.8,14.6l-1.1,4.8l0.4-0.1l0-0.2
				c0-0.4,0.2-0.7,0.5-0.9c-0.2-0.3-0.3-0.6-0.2-1L17.8,14.6z M22.4,17c0.3,0.1,0.6,0.3,0.8,0.5l0.1,0.2l0.5-0.1L20,12.9L19.8,13
				c0.2,0.1,0.4,0.3,0.6,0.5l1.8,2.6C22.4,16.3,22.5,16.7,22.4,17z M13.2,15c0.2,0.2,0.4,0.4,0.4,0.6c0.3,0.5,0.3,1.1,0.1,1.7
				c1-0.6,0.8-1.2,0.8-1.4c0-0.1-0.1-0.2-0.1-0.3c-0.1-0.2-0.2-0.3-0.4-0.4C13.8,15.1,13.5,15,13.2,15z M25.7,14.8l0.2,0.3
				c0.3,0.5,0.7,0.9,1.4,1.1c0.8,0.3,1.8,0.2,2.9,0c0.8-0.2,1.4-0.5,1.8-0.8c0,0,0,0,0,0c0.2-0.1,0.3-0.3,0.4-0.4
				c0.3-0.4,0.8-0.6,1.3-0.6c0.3,0,0.5,0.1,0.8,0.3l-0.3-1.5l-0.9,0.2c-0.4,0.1-0.9,0-1.2-0.2c-0.3-0.3-0.5-0.7-0.5-1.1v-0.9
				c0-0.4,0.2-0.7,0.4-1c-0.2,0-0.3,0-0.5,0c-0.4,0-0.7,0-1,0c-0.3,0-0.7,0.1-1.1,0.2c-0.8,0.2-1.5,0.5-2,0.8
				c-0.1,0.1-0.2,0.1-0.3,0.2c0,0,0,0,0,0c0,0,0,0,0,0c-0.4,0.2-0.6,0.5-0.9,0.8c-0.5,0.7-0.7,1.5-0.5,2.3L25.7,14.8z M37.4,12
				c0.3,0.5,0.8,0.9,1.5,1.1c0.1,0.1,0.3,0.1,0.5,0.1c-0.4-0.3-0.7-0.7-1-1.2c0-0.1-0.1-0.1-0.1-0.2c-0.4-1.3-0.5-2.3-0.2-3.2
				c-0.5,0.4-0.8,0.8-0.9,1.2c-0.2,0.4-0.2,0.9-0.1,1.4L37.4,12z M43.6,7.1c0.4,0.3,0.7,0.7,1,1.2c0.5,1,0.6,2,0.3,3.1
				c0,0.1-0.1,0.2-0.1,0.3c0.4-0.4,0.7-0.8,0.9-1.3C46,9.9,46,9.4,45.9,9l-0.1-0.2l-0.1-0.3c-0.1-0.2-0.2-0.3-0.3-0.4
				c-0.1-0.1-0.2-0.2-0.3-0.3c-0.3-0.2-0.6-0.4-1-0.5C43.9,7.2,43.8,7.1,43.6,7.1z M40.9,10.9c0.2,0.3,0.3,0.3,0.4,0.3
				c0.1,0,0.2,0,0.4-0.1c0.5-0.1,0.6-0.3,0.6-0.4c0.1-0.4,0.1-0.7-0.1-1.1c-0.1-0.2-0.2-0.3-0.3-0.3c-0.2-0.1-0.3,0-0.6,0
				c-0.2,0-0.5,0.1-0.5,0.3C40.7,9.7,40.6,10.2,40.9,10.9z"/>
		</g>
		<g>
			<path fill="#005BAB" d="M5.4,15.3l5.2-1.4c1-0.2,1.8-0.4,2.4-0.4c0.7,0,1.2,0.1,1.7,0.3c0.5,0.2,0.8,0.6,1,1
				c0.1,0.2,0.2,0.4,0.2,0.7c0.4,1.8-0.9,3.1-3.9,3.9l-1.8,0.5l0.6,2.5l-3.6,0.9L5.4,15.3L5.4,15.3z M9.4,16.2L9.8,18l1.5-0.4
				c0.4-0.1,0.8-0.3,1-0.6c0.2-0.3,0.3-0.6,0.1-0.9c-0.2-0.4-0.9-0.5-2-0.2L9.4,16.2L9.4,16.2z M17,12.3l3.7-0.9l5.8,7l-3.6,0.9
				l-0.7-1l-3.6,0.9l-0.1,1.2L15,21.3L17,12.3L17,12.3z M18.9,17.4l2.3-0.6l-1.8-2.6L18.9,17.4L18.9,17.4z M30.8,14.4l-0.4-1.7
				l4.9-1.3l1,4.4L34,16.4l-0.3-0.7c-0.6,0.9-1.7,1.5-3,1.8c-1.4,0.4-2.6,0.4-3.7,0c-1.1-0.3-1.8-1-2.3-1.8l-0.2-0.5l-0.1-0.4
				c-0.3-1.3,0-2.4,0.7-3.5c0.4-0.5,0.9-1,1.6-1.4c0.7-0.4,1.4-0.7,2.4-1c0.5-0.1,0.9-0.2,1.3-0.3c0.4,0,0.8-0.1,1.2,0
				c0.8,0,1.4,0.2,2,0.5c0.6,0.3,1,0.8,1.3,1.3l0,0l-3.4,0.9c-0.4-0.6-1.1-0.8-2.1-0.5c-1.6,0.4-2,1.6-1.3,3.6
				c0.5,0.9,1.3,1.2,2.6,0.9c0.4-0.1,0.7-0.3,1.1-0.6c0.3-0.3,0.5-0.6,0.5-0.9L30.8,14.4L30.8,14.4z M40.6,5.9c1.6-0.4,3-0.4,4-0.1
				c0.5,0.2,1,0.4,1.4,0.8c0.2,0.2,0.4,0.3,0.5,0.5c0.2,0.2,0.3,0.4,0.4,0.7l0.2,0.4l0.1,0.3c0.2,0.7,0.2,1.5-0.1,2.3
				c-0.3,0.8-0.8,1.5-1.6,2.1c-0.8,0.6-1.8,1.1-3,1.4c-1.6,0.4-3,0.4-4.1,0c-1.1-0.4-1.9-1-2.3-1.9l-0.1-0.3L36,11.9l-0.1-0.3
				c-0.2-0.8-0.1-1.5,0.2-2.2c0.3-0.7,0.8-1.4,1.6-2C38.4,6.7,39.4,6.3,40.6,5.9L40.6,5.9z M41.1,7.9c-1.6,0.4-2,1.6-1.3,3.5
				c0.5,1,1.3,1.3,2.4,1c0.9-0.2,1.4-0.7,1.6-1.4c0.2-0.7,0.1-1.4-0.2-2.1c-0.2-0.5-0.5-0.8-1-1C42.1,7.8,41.6,7.8,41.1,7.9
				L41.1,7.9z"/>
			<path fill="#005BAB" d="M7.2,23.5l-1.9-8.3l5.4-1.4c1-0.2,1.8-0.4,2.4-0.4c0,0,0.1,0,0.1,0c0.7,0,1.2,0.1,1.7,0.3
				c0.5,0.2,0.9,0.6,1.1,1.1c0.1,0.2,0.2,0.4,0.2,0.6l0.7-3.2l3.9-1l4,4.9c-0.1-0.1-0.1-0.2-0.1-0.3l-0.2-0.5l-0.1-0.4
				c-0.3-1.3,0-2.5,0.8-3.6c0.4-0.6,1-1,1.6-1.5c0.7-0.4,1.5-0.7,2.4-1c0.5-0.1,0.9-0.2,1.3-0.3c0.4,0,0.8-0.1,1.3,0
				c0.8,0,1.5,0.2,2.1,0.6c0.6,0.3,1.1,0.8,1.4,1.4l0.1,0.2l-3.7,1l-0.1-0.1c-0.4-0.6-1-0.7-1.9-0.5c-0.6,0.2-1.1,0.5-1.3,0.9
				c-0.3,0.6-0.3,1.4,0.1,2.5c0.4,0.9,1.2,1.1,2.4,0.8c0.4-0.1,0.7-0.3,1-0.5c0.2-0.2,0.3-0.3,0.4-0.5l-1.5,0.4l-0.5-2l5.2-1.4
				l1.1,4.7l-2.6,0.7L33.7,16c-0.7,0.8-1.7,1.3-3,1.7c-1.4,0.4-2.7,0.4-3.8,0c-0.6-0.2-1.1-0.5-1.6-0.9l1.4,1.7l-3.9,1l-0.7-1
				l-3.4,0.9l-0.1,1.2l-3.8,1l0.8-3.8c-0.6,0.8-1.8,1.3-3.4,1.8L10.5,20l0.6,2.5L7.2,23.5z M5.6,15.4l1.8,7.7l3.3-0.8l-0.6-2.5
				l2-0.5c2.9-0.7,4.1-2,3.8-3.7c-0.1-0.2-0.1-0.4-0.2-0.6c-0.2-0.4-0.5-0.7-0.9-0.9c-0.4-0.2-0.9-0.3-1.5-0.3l-0.1,0
				c0,0-0.1,0-0.1,0c-0.6,0-1.4,0.1-2.3,0.3L5.6,15.4z M17.1,12.4l-2,8.7l3.1-0.8l0.1-1.2l3.8-1l0.7,1l3.2-0.8l-5.6-6.7L17.1,12.4z
				 M24.6,15.2l0.2,0.5c0.4,0.8,1.1,1.4,2.2,1.8c1,0.3,2.2,0.3,3.6,0c1.3-0.3,2.3-0.9,3-1.8l0.2-0.2l0.4,0.9l2-0.5l-0.9-4.1
				l-4.6,1.2l0.3,1.4l1.6-0.4l0,0.2c0,0.3-0.2,0.7-0.6,1c-0.4,0.3-0.7,0.5-1.1,0.6c-1.3,0.3-2.2,0-2.7-1l0,0
				c-0.4-1.2-0.5-2.1-0.1-2.7c0.3-0.5,0.8-0.9,1.5-1.1c1-0.3,1.7-0.1,2.2,0.5l3.1-0.8c-0.3-0.5-0.7-0.9-1.2-1.1
				C33,9,32.4,8.8,31.6,8.8c-0.4,0-0.8,0-1.2,0c-0.4,0-0.8,0.1-1.3,0.3c-0.9,0.2-1.7,0.5-2.3,0.9c-0.6,0.4-1.2,0.8-1.5,1.4
				c-0.7,1-1,2.1-0.7,3.4L24.6,15.2z M9.7,18.2l-0.5-2.1l1.2-0.3c1.2-0.3,1.9-0.2,2.2,0.3c0.2,0.3,0.1,0.7-0.1,1
				c-0.2,0.3-0.6,0.5-1.1,0.6L9.7,18.2z M9.6,16.4l0.3,1.5l1.4-0.4c0.4-0.1,0.7-0.3,0.9-0.5c0.2-0.2,0.2-0.4,0.1-0.7
				C12.2,16.1,12,16,11.6,16c-0.3,0-0.6,0.1-1.1,0.2L9.6,16.4z M18.7,17.6l0.5-3.4l0.3-0.1l1.9,2.8L18.7,17.6z M19.5,14.7l-0.4,2.5
				l1.8-0.5L19.5,14.7z M40.3,14.9c-0.7,0-1.3-0.1-1.8-0.3c-1.1-0.4-1.9-1.1-2.4-2l0,0l-0.1-0.3l-0.2-0.7c-0.2-0.8-0.1-1.6,0.2-2.3
				c0.3-0.7,0.8-1.4,1.6-2.1c0.8-0.6,1.8-1.1,3.1-1.4c1.6-0.4,3-0.4,4.1-0.1c0.5,0.2,1,0.5,1.4,0.8c0.2,0.2,0.4,0.4,0.6,0.6
				c0.2,0.2,0.3,0.4,0.4,0.7l0.2,0.4l0.1,0.3c0.2,0.8,0.2,1.6-0.1,2.4c-0.3,0.8-0.8,1.5-1.7,2.2c-0.8,0.6-1.8,1.1-3.1,1.4
				C41.8,14.8,41,14.9,40.3,14.9z M36.3,12.5c0.4,0.8,1.2,1.4,2.2,1.8c1.1,0.4,2.4,0.4,4-0.1c1.2-0.3,2.2-0.8,3-1.4
				c0.8-0.6,1.3-1.3,1.6-2c0.3-0.7,0.3-1.5,0.1-2.2l-0.1-0.3l-0.2-0.4c-0.1-0.2-0.3-0.5-0.4-0.6c-0.1-0.2-0.3-0.4-0.5-0.5
				c-0.4-0.3-0.9-0.6-1.4-0.7c-1-0.4-2.4-0.3-3.9,0.1c-1.2,0.3-2.2,0.8-3,1.4c-0.8,0.6-1.3,1.3-1.5,1.9c-0.3,0.7-0.3,1.4-0.2,2.1
				L36.3,12.5z M41.4,12.7L41.4,12.7c-0.8,0-1.4-0.4-1.8-1.2l0,0c-0.4-1.1-0.4-2-0.1-2.7c0.3-0.5,0.8-0.9,1.5-1.1
				c0.6-0.2,1.2-0.1,1.6,0.1c0.4,0.2,0.8,0.6,1,1c0.4,0.7,0.4,1.5,0.2,2.2c-0.2,0.8-0.8,1.3-1.7,1.5C41.9,12.7,41.6,12.7,41.4,12.7z
				 M39.9,11.4c0.3,0.7,0.9,1,1.5,1l0,0c0.2,0,0.4,0,0.7-0.1c0.8-0.2,1.3-0.6,1.5-1.3c0.2-0.7,0.1-1.3-0.2-2
				c-0.2-0.4-0.5-0.7-0.9-0.9c-0.4-0.2-0.8-0.2-1.4,0C40.5,8.2,40,8.5,39.8,9C39.5,9.5,39.5,10.3,39.9,11.4z"/>
		</g>
	</g>
</g>
</svg>
