<?xml version="1.0" encoding="utf-8"?>
<!-- Generator: Adobe Illustrator 18.0.0, SVG Export Plug-In . SVG Version: 6.00 Build 0)  -->
<!DOCTYPE svg PUBLIC "-//W3C//DTD SVG 1.1//EN" "http://www.w3.org/Graphics/SVG/1.1/DTD/svg11.dtd">
<svg version="1.1" id="Layer_1" xmlns="http://www.w3.org/2000/svg" xmlns:xlink="http://www.w3.org/1999/xlink" x="0px" y="0px"
	 viewBox="0 0 53.8 36.9" enable-background="new 0 0 53.8 36.9" xml:space="preserve">
<g>
	<g>
		<path fill="#00387A" d="M50.7,36.9H3.1c-1.7,0-3.1-1.4-3.1-3.1V3.1C0,1.4,1.4,0,3.1,0h47.7c1.7,0,3.1,1.4,3.1,3.1v30.7
			C53.8,35.5,52.4,36.9,50.7,36.9"/>
		<g>
			<path fill="#F1B800" d="M9.6,10.2v4.2l-2.3-3.6l1.2,4.1l-3.2-3l2.3,3.6l-4-2.1l3.2,3l-4.4-1.1l4,2.1l-4.6,0l4.4,1.1l-4.4,1h4.6
				l-4,2.1l4.4-1.1l-3.2,3l4-2.1l-2.3,3.6l3.2-3l-1.2,4l2.3-3.6v4.2l1.1-3.9c-0.3-1.4-0.5-2.8-0.5-4.2c0-1.4,0.2-2.8,0.5-4.2
				L9.6,10.2L9.6,10.2z"/>
			<path fill="#FFFFFF" d="M12.2,10.5L12,11c-0.4,1.1-0.8,2.1-1,3.1c-0.3,1.3-0.4,2.7-0.4,4.2c0,1.5,0.1,2.9,0.4,4.2
				c0.2,1,0.5,2,1,3.1l0.2,0.5c0.5,1,1,2,1.6,2.8c-0.7-1.4-1.2-2.8-1.6-4.2c-0.6-2.2-0.9-4.4-0.9-6.5c0-2.2,0.3-4.4,0.9-6.6
				c0.4-1.4,0.9-2.8,1.6-4.2C13.3,8.4,12.7,9.4,12.2,10.5L12.2,10.5z"/>
			<path fill="#FFFFFF" d="M17.6,14.1h-1.1v8.6h1.1v-5.4c0-0.9,0.2-1.6,0.6-2c0.4-0.4,0.8-0.6,1.4-0.6c1.2,0,1.7,0.7,1.7,2v6h1.1
				v-6.1c0-0.8-0.1-1.4-0.4-1.8c-0.4-0.6-1.1-0.9-2.2-0.9c-0.9,0-1.6,0.4-2.3,1.2h0V14.1L17.6,14.1z"/>
			<path fill="#FFFFFF" d="M25,17.8c-0.1,0-0.3,0.1-0.4,0.1c-1,0.4-1.5,1.2-1.5,2.4c0,0.8,0.2,1.4,0.6,1.8c0.2,0.2,0.5,0.4,0.9,0.5
				c0.3,0.1,0.7,0.2,1.1,0.2c1.2,0,2.1-0.4,2.7-1.2h0v1.1h1.2l-0.1-6.5c0-1-0.4-1.6-1.1-2c-0.4-0.2-1-0.3-1.8-0.3
				c-0.8,0-1.4,0.1-1.9,0.4c-0.1,0-0.2,0.1-0.2,0.1c-0.6,0.4-1,1-1,1.8h1.2c0-0.1,0-0.2,0-0.4c0.1-0.3,0.2-0.6,0.5-0.8
				c0.3-0.3,0.7-0.4,1.3-0.4c0.7,0,1.2,0.2,1.5,0.6c0.3,0.3,0.4,0.8,0.4,1.5v0.7L25,17.8L25,17.8z M28.4,19.8c0,0.6-0.2,1.1-0.7,1.5
				c-0.5,0.4-1,0.7-1.6,0.7c-0.6,0-1-0.2-1.3-0.5c0,0-0.1-0.1-0.1-0.1c-0.2-0.3-0.3-0.7-0.3-1.1c0-0.4,0.1-0.8,0.3-1
				c0.2-0.3,0.6-0.6,1.1-0.7l2.6-0.2V19.8L28.4,19.8z"/>
			<path fill="#FFFFFF" d="M32.6,12.2h-1.1v1.9H30v0.8h1.5V21c0,0.6,0.1,1,0.4,1.2c0.3,0.3,0.8,0.4,1.6,0.4l1,0v-0.9l-0.9,0.1
				c-0.4,0-0.7-0.1-0.8-0.3c-0.1-0.2-0.2-0.6-0.2-1.1v-5.5h1.9v-0.8h-1.9V12.2L32.6,12.2z"/>
			<polygon fill="#FFFFFF" points="36.7,14 35.4,14 35.4,22.7 36.7,22.7 36.7,14 			"/>
			<polygon fill="#FFFFFF" points="35.4,12.2 35.4,13.5 36.7,13.5 36.7,12.2 35.4,12.2 			"/>
			<polygon fill="#FFFFFF" points="38.6,14.1 37.4,14.1 40.2,22.7 41.5,22.7 44.3,14.1 43.2,14.1 40.9,21.3 40.9,21.3 38.6,14.1 			
				"/>
			<path fill="#FFFFFF" d="M49.2,15.2c0.3,0.3,0.4,0.8,0.4,1.5v0.7l-3.3,0.4c-1.2,0.4-1.9,1.2-1.9,2.5c0,0.8,0.2,1.4,0.7,1.8
				c0.4,0.5,1.1,0.7,1.9,0.7c1.2,0,2.1-0.4,2.6-1.2h0.1v1.1h1.1c-0.1-0.7-0.1-1.4-0.1-2.2v-4.3c0-1.5-1-2.3-2.9-2.3
				c-0.9,0-1.6,0.2-2.1,0.5c-0.6,0.4-0.9,1-1,1.8h1.2c0-0.5,0.2-0.9,0.5-1.1c0.3-0.3,0.8-0.4,1.3-0.4C48.4,14.7,48.9,14.9,49.2,15.2
				L49.2,15.2z M47.3,22c-0.5,0-1-0.2-1.3-0.5c-0.3-0.3-0.4-0.7-0.4-1.3c0-0.9,0.5-1.5,1.4-1.7l2.6-0.2v1.6c0,0.6-0.2,1.1-0.7,1.5
				C48.5,21.8,47.9,22,47.3,22L47.3,22z"/>
		</g>
	</g>
</g>
</svg>
