<?xml version="1.0" encoding="utf-8"?>
<!-- Generator: Adobe Illustrator 18.0.0, SVG Export Plug-In . SVG Version: 6.00 Build 0)  -->
<!DOCTYPE svg PUBLIC "-//W3C//DTD SVG 1.1//EN" "http://www.w3.org/Graphics/SVG/1.1/DTD/svg11.dtd">
<svg version="1.1" id="Layer_1" xmlns="http://www.w3.org/2000/svg" xmlns:xlink="http://www.w3.org/1999/xlink" x="0px" y="0px"
	 viewBox="0 0 140 140" enable-background="new 0 0 140 140" xml:space="preserve">
<g>
	<circle fill="#FFF7E8" cx="70" cy="68" r="61.8"/>
	<g>
		<path fill="#FFFFFF" d="M119.7,69.7L83.4,40c-7.1-5.8-17.2-5.8-24.3,0L22.9,69.7v13v11.6v35.5h96.9V69.7z"/>
		<g>
			<path fill="none" stroke="#564273" stroke-width="3" stroke-linecap="round" stroke-linejoin="round" stroke-miterlimit="10" d="
				M120.1,129.8"/>
			<path fill="none" stroke="#564273" stroke-width="3" stroke-linecap="round" stroke-linejoin="round" stroke-miterlimit="10" d="
				M120.1,69.7"/>
			<g>
				<path fill="#564273" d="M119.7,131.3H22.9c-0.8,0-1.5-0.7-1.5-1.5V94.3c0-0.8,0.7-1.5,1.5-1.5s1.5,0.7,1.5,1.5v34h93.9V69.7
					c0-0.8,0.7-1.5,1.5-1.5s1.5,0.7,1.5,1.5v60.1C121.2,130.7,120.6,131.3,119.7,131.3z"/>
				<path fill="#564273" d="M22.9,84.3c-0.8,0-1.5-0.7-1.5-1.5v-13c0-0.8,0.7-1.5,1.5-1.5s1.5,0.7,1.5,1.5v13
					C24.4,83.6,23.7,84.3,22.9,84.3z"/>
				<path fill="#564273" d="M119.7,71.2c-0.3,0-0.7-0.1-0.9-0.3L82.5,41.2c-6.5-5.3-15.9-5.3-22.4,0L23.8,70.9
					c-0.6,0.5-1.6,0.4-2.1-0.2c-0.5-0.6-0.4-1.6,0.2-2.1l36.3-29.7c7.6-6.2,18.6-6.2,26.2,0l36.3,29.7c0.6,0.5,0.7,1.5,0.2,2.1
					C120.6,71.1,120.2,71.2,119.7,71.2z"/>
				<rect x="41.4" y="27.5" fill="#FFFFFF" width="59.8" height="48.7"/>
				
					<path fill="none" stroke="#564273" stroke-width="3" stroke-linecap="round" stroke-linejoin="round" stroke-miterlimit="10" d="
					M71.3,99.8"/>
				<path fill="#564273" d="M119.7,131.3c-0.3,0-0.7-0.1-0.9-0.3l-36.3-29.7c-6.5-5.3-15.9-5.3-22.4,0L23.8,131
					c-0.6,0.5-1.6,0.4-2.1-0.2c-0.5-0.6-0.4-1.6,0.2-2.1L58.2,99c7.6-6.2,18.6-6.2,26.2,0l36.3,29.7c0.6,0.5,0.7,1.5,0.2,2.1
					C120.6,131.1,120.2,131.3,119.7,131.3z"/>
				<path fill="#564273" d="M76.6,98c-0.5,0-1-0.3-1.3-0.7c-0.4-0.7-0.2-1.6,0.5-2.1L119,68.5c0.7-0.4,1.6-0.2,2.1,0.5
					c0.4,0.7,0.2,1.6-0.5,2.1L77.4,97.8C77.1,97.9,76.8,98,76.6,98z"/>
				<path fill="#564273" d="M66,98c-0.3,0-0.5-0.1-0.8-0.2L22.1,71c-0.7-0.4-0.9-1.4-0.5-2.1c0.4-0.7,1.4-0.9,2.1-0.5l43.2,26.8
					c0.7,0.4,0.9,1.4,0.5,2.1C67,97.8,66.5,98,66,98z"/>
			</g>
			<path fill="#564273" d="M41.4,82.1c-0.8,0-1.5-0.7-1.5-1.5V27.5c0-0.8,0.7-1.5,1.5-1.5h59.8c0.8,0,1.5,0.7,1.5,1.5v37.6
				c0,0.8-0.7,1.5-1.5,1.5s-1.5-0.7-1.5-1.5V29H42.9v51.6C42.9,81.4,42.2,82.1,41.4,82.1z"/>
			<g>
				<circle fill="#FFC352" cx="101.2" cy="65.3" r="3"/>
				<path fill="#564273" d="M101.2,69.4c-2.3,0-4.1-1.8-4.1-4.1c0-2.3,1.8-4.1,4.1-4.1s4.1,1.8,4.1,4.1
					C105.3,67.5,103.4,69.4,101.2,69.4z M101.2,63.4c-1,0-1.9,0.8-1.9,1.9s0.8,1.9,1.9,1.9s1.9-0.8,1.9-1.9S102.2,63.4,101.2,63.4z"
					/>
			</g>
			<g>
				<circle fill="#FF4B8B" cx="22.9" cy="93.5" r="3"/>
				<path fill="#564273" d="M22.9,97.6c-2.3,0-4.1-1.8-4.1-4.1c0-2.3,1.8-4.1,4.1-4.1s4.1,1.8,4.1,4.1C27,95.8,25.1,97.6,22.9,97.6z
					 M22.9,91.6c-1,0-1.9,0.8-1.9,1.9c0,1,0.8,1.9,1.9,1.9s1.9-0.8,1.9-1.9C24.8,92.5,23.9,91.6,22.9,91.6z"/>
			</g>
			<rect x="51.3" y="43.7" fill="#FFC352" width="43.1" height="5.6"/>
			<rect x="51.3" y="53.1" fill="#FFC352" width="35.8" height="5.6"/>
			<rect x="51.3" y="62" fill="#FFC352" width="22.9" height="5.6"/>
		</g>
	</g>
</g>
</svg>
