<?xml version="1.0" encoding="utf-8"?>
<!-- Generator: Adobe Illustrator 18.0.0, SVG Export Plug-In . SVG Version: 6.00 Build 0)  -->
<!DOCTYPE svg PUBLIC "-//W3C//DTD SVG 1.1//EN" "http://www.w3.org/Graphics/SVG/1.1/DTD/svg11.dtd">
<svg version="1.1" id="Layer_1" xmlns="http://www.w3.org/2000/svg" xmlns:xlink="http://www.w3.org/1999/xlink" x="0px" y="0px"
	 viewBox="0 0 140 140" enable-background="new 0 0 140 140" xml:space="preserve">
<g>
	<circle fill="#FFF7E8" cx="70" cy="68" r="61.8"/>
	<rect x="41.4" y="30.5" fill="#FFFFFF" width="57.2" height="98.1"/>
	<g>
		<path fill="#564273" d="M100.8,133.2h-59c-2,0-3.6-1.6-3.6-3.6V78.8c0-0.8,0.7-1.5,1.5-1.5s1.5,0.7,1.5,1.5v50.7
			c0,0.3,0.3,0.6,0.6,0.6h59c0.3,0,0.6-0.3,0.6-0.6V29.6c0-0.3-0.3-0.6-0.6-0.6h-59c-0.3,0-0.6,0.3-0.6,0.6v39
			c0,0.8-0.7,1.5-1.5,1.5s-1.5-0.7-1.5-1.5v-39c0-2,1.6-3.6,3.6-3.6h59c2,0,3.6,1.6,3.6,3.6v99.9
			C104.4,131.5,102.8,133.2,100.8,133.2z"/>
		<path fill="#564273" d="M102.9,117.2H39.7c-0.8,0-1.5-0.7-1.5-1.5s0.7-1.5,1.5-1.5h63.2c0.8,0,1.5,0.7,1.5,1.5
			S103.8,117.2,102.9,117.2z"/>
		<circle fill="#FF4B8B" cx="71.1" cy="123.4" r="3.3"/>
		<rect x="46.1" y="34" fill="#F0F0FF" width="49.9" height="75.6"/>
		<g>
			<path fill="#6461FF" d="M74.4,58.4h-8.2c-1.6,0-2.8-1.3-2.8-2.8v-8.2c0-1.6,1.3-2.8,2.8-2.8h8.2c1.6,0,2.8,1.3,2.8,2.8v8.2
				C77.2,57.2,76,58.4,74.4,58.4z M66.2,46.3c-0.6,0-1.1,0.5-1.1,1.1v8.2c0,0.6,0.5,1.1,1.1,1.1h8.2c0.6,0,1.1-0.5,1.1-1.1v-8.2
				c0-0.6-0.5-1.1-1.1-1.1H66.2z"/>
			<path fill="#6461FF" d="M74.4,78.2h-8.2c-1.6,0-2.8-1.3-2.8-2.8v-8.2c0-1.6,1.3-2.8,2.8-2.8h8.2c1.6,0,2.8,1.3,2.8,2.8v8.2
				C77.2,77,76,78.2,74.4,78.2z M66.2,66.1c-0.6,0-1.1,0.5-1.1,1.1v8.2c0,0.6,0.5,1.1,1.1,1.1h8.2c0.6,0,1.1-0.5,1.1-1.1v-8.2
				c0-0.6-0.5-1.1-1.1-1.1H66.2z"/>
			<path fill="#6461FF" d="M74.4,98.1h-8.2c-1.6,0-2.8-1.3-2.8-2.8V87c0-1.6,1.3-2.8,2.8-2.8h8.2c1.6,0,2.8,1.3,2.8,2.8v8.2
				C77.2,96.8,76,98.1,74.4,98.1z M66.2,85.9c-0.6,0-1.1,0.5-1.1,1.1v8.2c0,0.6,0.5,1.1,1.1,1.1h8.2c0.6,0,1.1-0.5,1.1-1.1V87
				c0-0.6-0.5-1.1-1.1-1.1H66.2z"/>
			<circle fill="#FF4B8B" cx="70.3" cy="51.5" r="1.3"/>
			<path fill="#FF4B8B" d="M70.3,73.6L67.8,71c-0.3-0.3-0.3-0.9,0-1.2c0.3-0.3,0.9-0.3,1.2,0l1.3,1.3l7.5-6.9c0.3-0.3,0.9-0.3,1.2,0
				c0.3,0.4,0.3,0.9,0,1.2L70.3,73.6z"/>
			<path fill="#FF4B8B" d="M70.3,93.8l-2.5-2.6c-0.3-0.3-0.3-0.9,0-1.2c0.3-0.3,0.9-0.3,1.2,0l1.3,1.3l7.5-6.9
				c0.3-0.3,0.9-0.3,1.2,0c0.3,0.4,0.3,0.9,0,1.2L70.3,93.8z"/>
		</g>
	</g>
	<g>
		<circle fill="#FFC352" cx="39.7" cy="68.7" r="3"/>
		<path fill="#564273" d="M39.7,72.8c-2.3,0-4.1-1.8-4.1-4.1c0-2.3,1.8-4.1,4.1-4.1c2.3,0,4.1,1.8,4.1,4.1
			C43.8,70.9,42,72.8,39.7,72.8z M39.7,66.8c-1,0-1.9,0.8-1.9,1.9c0,1,0.8,1.9,1.9,1.9c1,0,1.9-0.8,1.9-1.9
			C41.6,67.6,40.8,66.8,39.7,66.8z"/>
	</g>
</g>
</svg>
