<?xml version="1.0" encoding="utf-8"?>
<!-- Generator: Adobe Illustrator 18.0.0, SVG Export Plug-In . SVG Version: 6.00 Build 0)  -->
<!DOCTYPE svg PUBLIC "-//W3C//DTD SVG 1.1//EN" "http://www.w3.org/Graphics/SVG/1.1/DTD/svg11.dtd">
<svg version="1.1" id="Layer_1" xmlns="http://www.w3.org/2000/svg" xmlns:xlink="http://www.w3.org/1999/xlink" x="0px" y="0px"
	 viewBox="0 0 140 140" enable-background="new 0 0 140 140" xml:space="preserve">
<g>
	<g>
		<circle fill="#FFF7E8" cx="70" cy="68" r="61.8"/>
		<g>
			<polygon fill="#FFFFFF" points="55.4,123.5 55.4,31.3 103.6,31.3 120.6,48.3 120.6,123.5 			"/>
			<g>
				<g>
					<g>
						<path fill="#564273" d="M124.6,129H51.4c-0.8,0-1.5-0.7-1.5-1.5V27.3c0-0.8,0.7-1.5,1.5-1.5h53.9c0.8,0,1.5,0.7,1.5,1.5v17.9
							h17.9c0.8,0,1.5,0.7,1.5,1.5v80.9C126.1,128.3,125.4,129,124.6,129z M52.9,126h70.2V48.1h-17.9c-0.8,0-1.5-0.7-1.5-1.5V28.8
							H52.9V126z"/>
						<rect x="63.9" y="52.7" fill="#FFC352" width="45.6" height="7.8"/>
						<rect x="63.9" y="65.8" fill="#FFC352" width="45.6" height="7.8"/>
						<rect x="63.9" y="78.8" fill="#FFC352" width="45.6" height="7.8"/>
						<rect x="63.9" y="91.8" fill="#FFC352" width="45.6" height="7.8"/>
						<path fill="#564273" d="M124.6,48.1C124.6,48.1,124.6,48.1,124.6,48.1h-19.4c-0.8,0-1.5-0.7-1.5-1.5V27.3
							c0-0.6,0.4-1.2,0.9-1.4c0.6-0.2,1.2-0.1,1.6,0.3l19.2,19.2c0.4,0.3,0.6,0.7,0.6,1.2C126.1,47.5,125.4,48.1,124.6,48.1z
							 M106.7,45.1H121l-14.2-14.2V45.1z"/>
					</g>
				</g>
				<g>
					<g>
						<path fill="#FFFFFF" d="M29.6,58.3H13.8c-2.1,0-3.8-1.7-3.8-3.8V38.7c0-2.1,1.7-3.8,3.8-3.8h15.8c2.1,0,3.8,1.7,3.8,3.8v15.8
							C33.3,56.6,31.6,58.3,29.6,58.3z"/>
						<path fill="#564273" d="M29.6,59.8H13.8c-2.9,0-5.3-2.4-5.3-5.3V38.7c0-2.9,2.4-5.3,5.3-5.3h15.8c2.9,0,5.3,2.4,5.3,5.3v15.8
							C34.8,57.4,32.5,59.8,29.6,59.8z M13.8,36.5c-1.2,0-2.3,1-2.3,2.3v15.8c0,1.2,1,2.3,2.3,2.3h15.8c1.2,0,2.3-1,2.3-2.3V38.7
							c0-1.2-1-2.3-2.3-2.3H13.8z"/>
					</g>
					<path fill="#6461FF" d="M21.5,50.3c-0.4,0-0.8-0.2-1.1-0.5L17,46.2c-0.6-0.6-0.5-1.5,0.1-2.1c0.6-0.6,1.5-0.5,2.1,0.1l2.4,2.5
						l13.8-12.8c0.6-0.6,1.6-0.5,2.1,0.1c0.6,0.6,0.5,1.6-0.1,2.1L22.5,49.9C22.2,50.1,21.9,50.3,21.5,50.3z"/>
				</g>
				<g>
					<g>
						<path fill="#FFFFFF" d="M29,89.7H13.2c-2.1,0-3.8-1.7-3.8-3.8V70.2c0-2.1,1.7-3.8,3.8-3.8H29c2.1,0,3.8,1.7,3.8,3.8v15.8
							C32.7,88,31,89.7,29,89.7z"/>
						<path fill="#564273" d="M29,91.2H13.2c-2.9,0-5.3-2.4-5.3-5.3V70.2c0-2.9,2.4-5.3,5.3-5.3H29c2.9,0,5.3,2.4,5.3,5.3v15.8
							C34.2,88.8,31.9,91.2,29,91.2z M13.2,67.9c-1.2,0-2.3,1-2.3,2.3v15.8c0,1.2,1,2.3,2.3,2.3H29c1.2,0,2.3-1,2.3-2.3V70.2
							c0-1.2-1-2.3-2.3-2.3H13.2z"/>
					</g>
					<path fill="#6461FF" d="M20.9,81.7c-0.4,0-0.8-0.2-1.1-0.5l-3.4-3.6c-0.6-0.6-0.5-1.5,0.1-2.1c0.6-0.6,1.5-0.5,2.1,0.1l2.4,2.5
						l13.8-12.8c0.6-0.6,1.6-0.5,2.1,0.1c0.6,0.6,0.5,1.6-0.1,2.1L21.9,81.3C21.6,81.5,21.3,81.7,20.9,81.7z"/>
				</g>
				<g>
					<g>
						<path fill="#FFFFFF" d="M29,121.1H13.2c-2.1,0-3.8-1.7-3.8-3.8v-15.8c0-2.1,1.7-3.8,3.8-3.8H29c2.1,0,3.8,1.7,3.8,3.8v15.8
							C32.7,119.4,31,121.1,29,121.1z"/>
						<path fill="#564273" d="M29,122.6H13.2c-2.9,0-5.3-2.4-5.3-5.3v-15.8c0-2.9,2.4-5.3,5.3-5.3H29c2.9,0,5.3,2.4,5.3,5.3v15.8
							C34.2,120.3,31.9,122.6,29,122.6z M13.2,99.3c-1.2,0-2.3,1-2.3,2.3v15.8c0,1.2,1,2.3,2.3,2.3H29c1.2,0,2.3-1,2.3-2.3v-15.8
							c0-1.2-1-2.3-2.3-2.3H13.2z"/>
					</g>
					<path fill="#6461FF" d="M20.9,113.1c-0.4,0-0.8-0.2-1.1-0.5l-3.4-3.6c-0.6-0.6-0.5-1.5,0.1-2.1c0.6-0.6,1.5-0.5,2.1,0.1
						l2.4,2.5l13.8-12.8c0.6-0.6,1.6-0.5,2.1,0.1c0.6,0.6,0.5,1.6-0.1,2.1l-14.9,13.8C21.6,113,21.3,113.1,20.9,113.1z"/>
				</g>
				<path fill="#564273" d="M51.4,79.5H32.7c-0.8,0-1.5-0.7-1.5-1.5s0.7-1.5,1.5-1.5h18.6c0.8,0,1.5,0.7,1.5,1.5
					S52.2,79.5,51.4,79.5z"/>
				<path fill="#564273" d="M51.4,48.1H33.3c-0.8,0-1.5-0.7-1.5-1.5s0.7-1.5,1.5-1.5h18.1c0.8,0,1.5,0.7,1.5,1.5
					S52.2,48.1,51.4,48.1z"/>
				<path fill="#564273" d="M51.4,111H32.7c-0.8,0-1.5-0.7-1.5-1.5s0.7-1.5,1.5-1.5h18.6c0.8,0,1.5,0.7,1.5,1.5S52.2,111,51.4,111z"
					/>
			</g>
		</g>
	</g>
</g>
</svg>
